<svg enable-background="new 0 0 1200 1200" viewBox="0 0 1200 1200" xmlns="http://www.w3.org/2000/svg"><path d="m43.5 939.9s14.8 124.9 13 157.2c0 0 300.3-11.1 317.9-5s13-144.6-1-155.7-329.9 3.5-329.9 3.5z" fill="#f9f88e"/><path d="m802.3 749.6s1.2 154.4 5.7 189.6c0 0 145.9-1.5 176.3 0 0 0 4.6-180.2-3-186.3 0-.1-166.8-11-179-3.3z" fill="#d6dbdf"/><path d="m191.6 106.2h135v73.8h-135z" fill="#d17820"/><path d="m900.5 106.2h118.2v73.8h-118.2z" fill="#d17820"/><path d="m33.3 55.9s164.6 45.5 265.9 47.1-113.9 20.4-113.9 20.4 468.4 69.1 833.5-1.6c0 0-80.2-17.3-113.9-15.7s234.1-48.6 259.4-47.1c0 0-149.8 67.5 0 95.8 0 0-141.4 25.1-141.4 26.7s-818.7 25.1-981.1-28.3c0 .1 120.2-39.2-8.5-97.3z" fill="#e5861f"/><path d="m181 208.2c61.2 9.4 441 70.7 837.7 0v-86.4s-517.8 69.2-833.5 1.6z" fill="#f7941d"/><path d="m433.6 164.4c.6 11.3 1.4 22.6 1.9 33.9.3 3.7.9 7.3 1.6 10.9.4 2.5 1 4.9 3.1 6.5.6.3 1.3.2 1.8-.2 2.6-2.4 3.8-5.6 5.5-8.6 2.8-5 5.6-10 8.4-15.1 2.6-4.6 5.3-9.2 7.7-13.9 1.5-3 2.7-8.3 5.4-10.5l-2.6-1.1c-.1 1.4-1.3 2.8-1.9 4.1-.9 2.4-1.4 4.8-1.6 7.3-.7 4.8-1 9.7-.9 14.6.5 9.7-.1 20.6 2.6 30 .2.6.8 1.1 1.5 1.1 3.1-.4 4.7-4.1 6.1-6.5 3-5.2 6.4-10.2 10-15 4.2-5.8 7.9-11.8 11.8-17.8 3.2-4.9 6-9.5 6.8-15.4.2-1.9-2.8-1.9-3 0-.8 5.9-4.2 10.3-7.2 15.2s-6 9.6-9.4 14.3-6.9 9.2-9.9 14.1c-1 1.6-3.4 7.9-5.3 8.1l1.5 1.1c-1.5-5.1-1.5-10.5-1.8-15.8-.3-5.1-.8-10.2-.9-15.2-.2-5.3.3-10.6 1.5-15.8.7-2.9 2.7-5.5 3-8.4.1-1.4-1.7-1.8-2.6-1.1-2.1 1.7-2.9 4.6-3.9 7-2.3 5-4.9 10-7.8 14.7-2.7 4.7-5.2 9.5-7.9 14.2-2.2 3.9-4.1 9.1-7.4 12.2l1.8-.2c-2-1.5-1.6-5.3-2.1-7.6-.8-4.5-1.2-9.1-1.4-13.7-.5-9.2-1.1-18.4-1.6-27.5.1-1.8-2.9-1.8-2.8.1z" fill="#fff"/><path d="m530.1 175.6c-.2-5.7-4.6-4.5-9.1-3.2-5.8 1.7-10.6 6.8-12.9 12.3-5.1 12.2-8.6 31.9 3.6 41.2 4.7 3.6 11.3 1.2 15.8-1.6 2.3-1.6 4-4 4.8-6.7 1.6-4.1 2.9-8.2 4.1-12.4 1.8-7.3 1.2-15.8-.6-23.1-1.1-4.5-3.2-11.2-8.5-12.3-1.9-.4-2.7 2.5-.8 2.9 4.4.9 5.7 7.3 6.6 10.8 1.3 5.4 1.7 11.1 1.2 16.6-.6 5.2-2.6 10.2-4.3 15.1-1.1 3.2-2.4 5.6-5.6 7.3s-7.6 3.4-11 .9c-8.8-6.6-7.6-21.1-4.8-30.2 1.6-5.3 2.9-10 7-14 1.5-1.5 11.4-7.4 11.6-3.6 0 1.9 3 1.9 2.9 0z" fill="#fff"/><path d="m547 225.6c.7-4.2 3.5-8.4 5.2-12.4 1.8-4.2 4.7-7.7 7.1-11.5 2.3-4 4.2-8.1 5.8-12.4.9-2.2 2.3-9.8 4.9-10.6l-1.7-.7c2.2 3.1 2.9 8.3 3.9 11.9 1.1 4.1 2.2 8.1 3.4 12.1 2.2 7.1 5.6 15 4 22.7h2.9c-.7-3.8 3.6-10.2 5.3-13.4 1.9-3.3 3.5-6.8 5-10.3 1.5-4 2-8.1 2.8-12.2.4-2.2 1.2-4.3 1.7-6.5.4-1.6.3-3.7 1.5-4.9l-2.4-.3c1.9 3.4 2.7 8.3 3.5 12 1 4.5 1.8 9 3.2 13.4 1.3 4.1 3.8 7.5 5.2 11.6 1.6 4.9 1.9 10.1 2.2 15.3.1 1.9 3.1 1.9 3 0l-.3-5.8c-.1-1.9-3.1-1.9-3 0l.3 5.8h3c-.1-4.8-.7-9.6-1.7-14.3-1.3-4.8-4.2-8.6-5.6-13.3s-2.3-9.5-3.4-14.2c-.8-3.8-1.7-8.5-3.6-11.9-.4-.7-1.4-1-2.1-.5-.1.1-.2.1-.3.2-2.2 2.3-2.4 6.5-3.2 9.4-1.5 5.4-1.7 10.9-3.8 16.1s-5.2 10-7.5 15.2c-1.3 3-3.2 6.2-2.5 9.5.2.8 1.1 1.2 1.9 1 .5-.1.9-.5 1-1 .8-3.6-.2-7.3-.3-10.9-.2-4.2-1.9-7.6-3.1-11.6-1.5-4.9-2.9-9.8-4.2-14.7-.9-3.6-1.7-8.7-4-11.8-.4-.6-1-.9-1.7-.7-2.7.8-3.6 3.4-4.5 5.8-1.9 5.2-4.1 10.3-6.6 15.3-2.3 4.7-5.7 8.8-8 13.5-1.2 2.5-1.9 5.1-3.2 7.5-1.3 2.1-2.2 4.4-2.7 6.8-.5 1.9 2.4 2.7 2.6.8z" fill="#fff"/><path d="m634.6 183.4c.8 0 1.5-.7 1.5-1.5s-.7-1.5-1.5-1.5-1.5.7-1.5 1.5.7 1.5 1.5 1.5z" fill="#fff"/><path d="m625.9 182.2c.8-.9 3.8-.1 4.8 0 2.6.1 5.2-.2 7.8-.3 2.5.1 5-.2 7.5-.8 2.2-.7 4-2.7 6.2-3 1.9-.2 1.9-3.2 0-3-2.3.2-3.5 1.3-5.4 2.4-3.7 1.9-9.4 1.6-13.5 1.7-2.6.1-7.4-1.3-9.4.9-1.4 1.4.8 3.6 2 2.1z" fill="#fff"/><path d="m623 208c4.2-1.4 8.6-1.2 12.8-2.9 4.7-2 10.6-5.1 15.8-5.4v-3h-.5c-1.9.1-1.9 3.1 0 3h.5c1.9-.1 1.9-3.1 0-3-4.6.2-9.6 2.5-13.8 4.2-2.6 1.1-5.1 2.3-7.9 2.8s-5 .5-7.8 1.4c-1.7.6-.9 3.5.9 2.9z" fill="#fff"/><path d="m629.7 189.6c2.8 1.3 2.1 8.4 2.2 10.8.2 4.5-.1 8.9-.8 13.3-.9 4.8-1.4 13.7-5 17.4l2.6 1.1c.5-3.7 11.8-2.6 14.8-3.2 3.2-.6 7-1.7 9.7-3.6.7-.4.9-1.4.5-2.1-.1-.1-.1-.2-.2-.3l-.6-.6c-1.4-1.4-3.5.8-2.1 2.1l.6.6.3-2.4c-5.9 4.2-13.5 3.2-20.2 4.1-2.8.4-5.4 2.3-5.8 5.3-.2 1.3 1.7 1.9 2.6 1.1 2.2-2.4 3-5.6 3.7-8.7 1-4.6 2.1-9.3 2.7-14 .7-5.4.2-10.9 0-16.4-.1-3.1-.3-5.6-3.4-7.1-1.8-.8-3.4 1.8-1.6 2.6z" fill="#fff"/><path d="m709 174.4c.7.9-.4 3.7-.5 4.9-.4 2.4-.6 4.8-1.2 7.1-1.1 4.8-3.5 9.1-4.5 14-1.2 5.4-1 10.8-2 16.1-.8 4.3-.8 8.6-3 12.6h2.6c-5.2-7.8-5-17.2-7.1-26-1.1-4.6-3-8.8-4.8-13.2-1.8-4.6-2.5-9.8-4.5-14.2-.4-.7-1.4-.9-2.1-.5-.3.2-.6.5-.7.9-1 3.9-.6 8.3-1.3 12.3-.8 4.6-2.2 9.1-3.2 13.6-.9 4.3-1.3 8.6-1.9 12.9-.5 4.1-.7 10.2-3.6 13.5l2.6 1.1.4-3c.4-1.9-2.5-2.7-2.9-.8-.3 1.2-.5 2.5-.5 3.8 0 .8.7 1.5 1.5 1.5.4 0 .7-.2 1-.4 5-5.7 4.5-16.2 5.5-23.4.8-5.5 2.5-10.8 3.6-16.2.9-4.6.5-9.6 1.6-14.1l-2.7.4c2 4.4 2.5 9.6 4.3 14.1 2.1 5 3.9 10.2 5.3 15.4 1.1 4.4.6 8.9 2.1 13.1 1.3 3.5 2.5 7.6 4.7 10.7.4.7 1.4.9 2.1.5.2-.1.4-.3.5-.5 2.4-4.4 2.5-8.6 3.3-13.3 1.2-6.8 1.1-13.7 2.9-20.4.7-2.7 2.4-4.9 3.1-7.5s1.3-5.3 1.6-7.9c.4-3 1.9-6.5-.1-9.1-1.2-1.6-3.3.5-2.1 2z" fill="#fff"/><path d="m761.6 173.8c-8.4.4-18.4.1-25 6.4-6.5 6.1.8 13.6 6.4 17 2.2 1.3 4.3 2.9 6.5 4.1 2.7 1.5 5.7 2.2 8.3 3.8 2.6 1.3 4.6 3.4 5.9 6 .8 1.8 1.3 3.6-.2 5.1-.9.6-1.9.9-2.9 1.1-3.5 1.1-7.1 1.9-10.7 2.5-4 .8-12.3 4.9-15.9 1.4-1.4-1.3-3.5.8-2.1 2.1 2.6 2.4 6.4 2.1 9.7 1.6 4.7-.8 9.3-1.9 13.8-3.2 4.2-1.2 14.2-2.3 12.5-8.8-1.1-3.7-3.5-6.9-6.7-9-2.2-1.5-4.5-2.7-6.9-3.6-3.4-1.4-6.2-3.3-9.3-5.2-2.9-1.8-6.4-3.7-7.5-7.2-1.3-4 1.4-6.1 4.7-7.8 6.1-3.1 12.7-2.9 19.3-3.2 2-.1 2-3.1.1-3.1z" fill="#fff"/><path d="m799.7 221.6c.8 0 1.5-.7 1.5-1.5s-.7-1.5-1.5-1.5-1.5.7-1.5 1.5.6 1.5 1.5 1.5z" fill="#fff"/><path d="m797.6 218.8c1.8-.5 3.4-10.5 3.9-12.2 1.4-4.7 2.6-9.4 3.5-14.2.9-4.4 3.1-7.9 4.6-12 1.2-3.2 3.4-6.4 3.5-9.9h-3c.3 5.9 1.2 11.6 1.7 17.5.2 2.8 1.1 5.5 1.3 8.3.3 3.4-.4 6.5-.7 9.8-.1 1.4-1.2 16.4 4.4 12.2.9-.7 1.2-2 1.5-3 .6-2.4 1.5-4.8 2.5-7.1 2.2-4.2 4.3-8.4 6.1-12.8 3.8-9.9 9.5-19.6 8.9-30.6h-3c.7 10.1 3.2 19.7 5 29.6.7 4.1 1.3 8.3 2.1 12.4.5 2.5-.3 6.4 1.8 8.3.6.6 1.6.5 2.1-.1.3-.3.4-.6.4-1 .2-1 .2-1.9 0-2.9-.2-1.9-3.2-1.9-3 0 .2 1 .2 1.9 0 2.9l2.6-1.1c-.8-.8-.5-3.9-.6-4.8-.2-1.3-.6-2.6-.8-3.9-.6-3.8-1.2-7.7-1.8-11.5-1.5-9.4-4.1-18.4-4.8-27.9-.1-1.9-3.1-1.9-3 0 .5 9.7-4.3 17.3-7.4 26-2.7 7.6-7.6 14.5-9.7 22.2-.1.3-.7 2.9-.1 2.3s-.2-4.5-.2-5.3c-.1-4.1 1-8.1.9-12.2-.1-4.4-1.3-8.7-1.6-13.1-.3-4.8-1.3-9.5-1.6-14.3 0-.8-.7-1.5-1.5-1.5s-1.5.7-1.5 1.5c-.1 1.9-1.4 3.7-2.1 5.4-.9 2.3-1.5 4.7-2.7 6.9-2.1 4-2.9 7.6-3.9 12.1-1.8 8.4-5.3 16.6-6.3 25.2 0 .5.3 1 .7 1.3.7.6 1.7.7 2.5.3.8-.2 1.2-1.1 1-1.9-.1-.7-.9-1.1-1.7-.9z" fill="#fff"/><path d="m867.5 159.6-.1-.6c-.1-.5-.5-.9-1-1l-.5-.1c-.8-.2-1.6.2-1.8 1-1.8 9.9-4.6 19.7-6.6 29.6-2 9.6-3.4 19.2-6 28.7-.2.8.3 1.6 1.1 1.8s1.6-.3 1.8-1c.4-1 .6-2.1.7-3.2.3-1.9-2.6-2.7-2.9-.8-.1 1.1-.4 2.2-.7 3.2l2.9.8c2.5-9.5 4-19.1 6-28.7 2-9.9 4.8-19.6 6.6-29.6l-1.8 1-.4-.3c.2 1.9 3.1 1.1 2.7-.8z" fill="#fff"/><path d="m868 159.1c-1.8 2.8-1.9 5.7-1.3 8.9.9 5 2.9 10 4.3 14.9 1.5 4.9 3.2 9.6 5.2 14.3 1 2.2 1.9 4.4 2.6 6.7.7 2.7.1 5.1.2 7.8h3c-.1-1.6-.2-3.2-.3-4.8-.1-1.9-3.1-1.9-3 0 .1 1.6.2 3.2.3 4.8.1 1.9 3.1 1.9 3 0-.2-4.1.6-6.3-.9-10.3-1.5-4.2-3.5-8.3-5-12.6s-2.5-8.4-3.8-12.7c-1.4-4.8-4.8-10.7-1.7-15.6 1-1.5-1.5-3-2.6-1.4z" fill="#fff"/><path d="m853.3 193.6c-.1.7 0 1.4.3 2 .2.8 1.1 1.2 1.8 1 5.7-1.9 10.1-6 16.4-6.6 1.9-.2 1.9-3.2 0-3-2.8.2-5.5.9-8 2-3.2 1.4-6 3.6-9.2 4.7l1.8 1-.2-1.1c.1-2-2.9-2-2.9 0z" fill="#fff"/><path d="m893 162.6c.1-.8.4-1.6.7-2.3l-3-.4c.2 8.9.8 17.4.3 26.3-.1 3.9 0 7.9.4 11.8.2 2-.4 3.5-.6 5.4-.2 1.6.1 3.2 0 4.9l1.9-1.4.4.3c-.4-1.9-3.3-1.1-2.9.8l.1.7c.1.5.5.9 1 1l.5.1c.8.2 1.7-.3 1.9-1.1 0-.1 0-.2 0-.3.5-3.2.7-6.4.7-9.6-.4-4.2-.6-8.4-.5-12.6.5-8.9-.1-17.4-.3-26.3 0-.8-.7-1.5-1.6-1.5-.6 0-1.2.4-1.4 1.1-.4.7-.6 1.5-.7 2.3-.2 1.8 2.7 2.6 3.1.8z" fill="#fff"/><path d="m894.4 159.7-.5.1 1.7 2.2c3-4.4 11.8-7.1 16.1-2.5 2.8 3 2.2 10.6-.1 13.4-2 2.5-6.2 4.9-9.1 6.3s-6.6 1.9-8.9 4.6c-.6.6-.6 1.6 0 2.1.2.2.4.3.6.4 2.5.5 5 1.2 7.5 1.9 3.7 1.3 6 3.5 9.1 5.7 3.9 2.7 8.7 4.8 13 6.9 1.4.7 3.2-1.2 1.8-2.4l-.6-.5c-1.5-1.2-3.6.9-2.1 2.1l.6.5 1.8-2.4c-5.4-2.5-10.6-5.4-15.5-8.8-4.6-3.4-9.4-4.7-14.9-6l.7 2.5c2.3-2.7 6.5-3.1 9.5-4.8 2.7-1.4 5.2-3.1 7.5-5.1 4-3.7 4.2-8.6 3.3-13.7-.9-5.3-4.8-7.2-9.9-7.8-5.7-.6-9.9 1.1-13.2 5.9-.8 1.2.5 2.4 1.7 2.2l.5-.1c2.1-.2 1.3-3.1-.6-2.7z" fill="#fff"/><path d="m954.9 150.6.1-.7-1.9 1.4c.7 0 1.4.2 2.1.5.8.2 1.6-.3 1.8-1.1.1-.6-.1-1.3-.7-1.6-6.9-4.2-16.1 3.5-18.9 9.4-4.4 8.8-6.5 18.6-5.9 28.4.3 6 1.6 13.6 8.7 14.8 3.8.6 9.2-1.2 12.5-2.8 5-2.5 6.7-6.6 9.8-10.8 1.1-1.6-1.5-3.1-2.6-1.5-2.6 3.6-3.7 7.1-8 9.4-2.5 1.3-7.5 3-10.3 2.9-6.8-.3-6.9-9.1-7.1-14-.4-6.6.7-13.2 3.3-19.2 1.6-3.6 2.7-7.3 5.5-10.2 2.5-2.5 7.8-6 11.5-3.7l1.2-2.7c-.7-.3-1.4-.4-2.1-.5-.8-.2-1.7.3-1.9 1.1v.3l-.1.7c-.2 1.9 2.8 1.9 3-.1z" fill="#fff"/><path d="m972.7 150.5c0-.6.5-2 .6-2.7l-3-.4c0 8.4-.5 16.8-1.5 25.1-.8 8.2-2.4 16.5-2.3 24.7h3l-.1-2.1c-.1-1.9-3.1-1.9-3 0l.1 2.1c.1 1.9 3 1.9 3 0-.2-8.2 1.4-16.5 2.3-24.7 1-8.3 1.5-16.7 1.5-25.1 0-1.6-2.7-2.1-3-.4-.3 1.1-.5 2.3-.7 3.5 0 1.9 3 1.9 3.1 0z" fill="#fff"/><path d="m972.5 170.5c3.5-3.4 8-5.2 12.5-7s8.7-4.3 13.5-4.8c1.9-.2 2-3.1 0-3l-3 .2c-1.9.1-1.9 3.1 0 3l3-.2v-3c-5.7.6-10.5 3.3-15.7 5.5-4.5 1.9-8.9 3.8-12.4 7.2-1.4 1.4.7 3.5 2.1 2.1z" fill="#fff"/><path d="m994.4 135.5c-1.2 4.2-.4 8.6-.1 13 .2 5-.1 10-.9 14.9-.6 4.6-.9 9.2-.8 13.8.1 5.1-1 10.2-.8 15.4h3l-.1-2.2c-.1-1.9-3.1-1.9-3 0l.1 2.2c.1 1.9 3.1 1.9 3 0-.2-4.7.8-9.2.9-13.8-.1-4.6.1-9.1.5-13.7.5-4.7 1.3-9.4 1.2-14.1s-1.4-10.1-.1-14.8c.2-.8-.3-1.6-1.1-1.8-.7-.1-1.5.3-1.8 1.1z" fill="#fff"/><path d="m722.6 166.8v17.6c0 .8.7 1.5 1.5 1.5s1.5-.7 1.5-1.5v-17.6c0-.8-.7-1.5-1.5-1.5s-1.5.7-1.5 1.5z" fill="#fff"/><path d="m223.1 144.8c0 8-.5 16-1.4 23.9-.6 4.1-1.5 8.1-2.7 12-1.1 3.6-1.6 8.2-3.6 11.5-.4.7-.1 1.6.6 2s1.6.1 2-.5c1.8-3.1 2.4-7.1 3.4-10.5 1.2-3.8 2.2-7.7 3-11.6 1.3-8.8 1.9-17.8 1.8-26.7 0-.8-.7-1.5-1.5-1.5s-1.6.6-1.6 1.4z" fill="#fff"/><path d="m224.1 147.3c.1 8 4.2 15.9 6.6 23.5 2.6 7.9 5.9 17.1 5.8 25.5h3c-.1-4.4 2.8-8.8 4.6-12.6 1.5-3.4 2.6-7 3.4-10.6.9-3.7 1.8-7.3 2.6-11 .9-4 2.3-7.1 2.2-11.3 0-1.9-3-1.9-3 0 .1 4.4-1.6 8.1-2.4 12.4s-2.1 8.4-3.2 12.6c-1.9 6.8-7.4 13.4-7.2 20.5 0 .8.7 1.5 1.5 1.5s1.5-.7 1.5-1.5c.1-7.6-2.6-15.3-4.8-22.6-2.5-8.5-7.5-17.5-7.6-26.3 0-2.1-3-2.1-3-.1z" fill="#fff"/><path d="m253.4 198.3c.7-4 4.4-7 6.8-10.2 2.7-3.6 5-7.5 7.6-11.1 5.1-7.2 11.1-14.2 13.5-23l-3-.4c-.4 15.6 2.6 31.2 2.5 46.8 0 .8.7 1.5 1.5 1.5s1.5-.7 1.5-1.5c.1-15.6-2.8-31.2-2.5-46.8 0-.8-.7-1.5-1.6-1.5-.6 0-1.2.4-1.4 1.1-2.6 9.5-9.7 17-15.1 25-2.7 4-5.2 8-8.3 11.7-2 2.4-3.8 4.5-4.4 7.6-.4 1.8 2.5 2.6 2.9.8z" fill="#fff"/><path d="m265.3 180.5h8.7c1.6 0 5.1-.7 6.4.3 1.5 1.2 3-1.4 1.5-2.6s-3.9-.7-5.8-.7c-3.6 0-7.2 0-10.8 0-.8 0-1.5.7-1.5 1.5s.7 1.5 1.5 1.5z" fill="#fff"/><path d="m316.4 157.2c-5.7 0-13.8.6-17 6.4-3.1 5.6 1.8 10.9 5.6 14.4 4.8 4.5 17.4 7.4 12.2 15.7-2.8 4.5-7.5 7-12.7 7.9-4.3.9-8.7-.8-11.2-4.3-.7-.9-.7-1.6-1.5-2.5-1.3-1.4-3.4.7-2.1 2.1 1 1.1 1.1 2.8 2.2 3.9 1.1 1 2.3 1.9 3.7 2.4 3.3 1.6 7 1.9 10.5 1 6-1.4 13.9-5.4 15.5-12 1.6-7-4.4-10.2-9.5-12.8-3.5-1.7-9.2-6.5-10.2-10.4-2.1-7.7 9.8-9 14.7-8.9.8 0 1.5-.7 1.5-1.5s-.8-1.4-1.7-1.4z" fill="#fff"/><path d="m329.3 161.7c8.5 0 16.9 0 25.3.5 1.9.1 1.9-2.9 0-3-8.4-.5-16.8-.5-25.3-.5-.8 0-1.5.7-1.5 1.5s.7 1.5 1.5 1.5z" fill="#fff"/><path d="m344.2 160.7c-.7 15.4-8.9 29.5-12.4 44.2-.4 1.9 2.5 2.7 2.9.8 3.6-15.1 11.7-29.3 12.5-45 .1-1.9-2.9-1.9-3 0z" fill="#fff"/><path d="m362.2 163.9c2.7 4.7 4.8 9.8 7.4 14.6 2.3 4.2 3.5 8.3 6.7 12 1.3 1.5 3.4-.7 2.1-2.1-3.2-3.7-4.7-8.7-7.1-12.9s-4.1-8.8-6.5-13c-.4-.7-1.4-.9-2.1-.5-.6.4-.9 1.3-.5 1.9z" fill="#fff"/><path d="m396.7 165.1c-4.2 4.2-8.3 8.6-12.4 12.9-2 2.1-4 4.2-6.2 6.3-1.3 1.3-3.4 2.6-4.2 4.3-1.1 2.3-.6 5.4-1.1 7.9-.6 3.1-1.4 6.2-2.2 9.2-.8 2.7-1.5 5.3-2.1 8-.1.6-.2 1.2-.4 1.7l-.2.9c-.9 1.2-.7 1.6.4 1.1-1.6-1.1-3.1 1.5-1.5 2.6 2.2 1.6 3.5-1.1 4-2.9 1.8-5.5 3.2-11.5 4.4-17.1.7-2.9.5-6.9 1.7-9.6 1.2-3 5-5.4 7.3-7.8 4.9-5.2 9.7-10.4 14.7-15.4 1.3-1.4-.9-3.6-2.2-2.1z" fill="#fff"/><path d="m725.1 408.5h83.6s7.9-93.4-41.8-93.4-41.8 93.4-41.8 93.4z" fill="#ffdd2e"/><path d="m735.4 366.7s-3 52.1 29.5 52.1 32.5-52.1 32.5-52.1-30.6-35.4-62 0z" fill="#d88b72"/><path d="m804.8 366.8c-7-15.8-18.6-30-37.5-29.9-19.7.1-31.3 13.1-38.1 30.1h16.1s2.4-9 4.9-9 4.7 9 4.7 9z" fill="#ffdd2e"/><path d="m1027.8 667.3h83.6s7.9-93.4-41.8-93.4-41.8 93.4-41.8 93.4z" fill="#bcbcbc"/><path d="m1038.1 625.5s-2.9 52.1 29.5 52.1 32.4-52.1 32.4-52.1-30.4-35.4-61.9 0z" fill="#d88b72"/><path d="m1107.4 625.8c-7-15.8-18.5-30-37.4-30-19.7 0-31.4 13-38.3 29.9h16.1s2.4-9 5-9 4.7 9 4.7 9z" fill="#bcbcbc"/><path d="m455 441.6h83.6s7.9-93.4-41.8-93.4-41.8 93.4-41.8 93.4z"/><path d="m465.4 399.8s-3 52.1 29.5 52.1 32.4-52.1 32.4-52.1-30.5-35.4-61.9 0z" fill="#ffd7cc"/><path d="m534.7 400.1c-7-15.9-18.5-30-37.4-30-19.7 0-31.4 13-38.3 29.9h16.1s2.4-9 5-9 4.6 9 4.6 9z"/><path d="m482.8 364.9 28.8.4s4.5-30.3-14.4-30.3-14.4 29.9-14.4 29.9z"/><path d="m208.1 364.5h83.6s7.9-93.4-41.8-93.4-41.8 93.4-41.8 93.4z" fill="#582f2b"/><path d="m218.4 322.8s-2.9 52.1 29.5 52.1 32.5-52.1 32.5-52.1-30.5-35.4-62 0z" fill="#d88b72"/><path d="m287.8 323c-7-15.9-18.5-30-37.4-30-19.7 0-31.4 13-38.3 37.2l8.8 18.7s1-41.3 28.5-41.3c24.6 0 26.5 41.3 26.5 41.3z" fill="#582f2b"/><path d="m281 796.9h83.6s7.9-68.9-41.8-68.9-41.8 68.9-41.8 68.9z"/><path d="m291.3 779.7s-3 52.1 29.5 52.1 32.5-52.1 32.5-52.1-30.6-35.4-62 0z" fill="#d88b72"/><path d="m310.7 779.9 49.9.1c-7-15.8-18.5-30-37.4-30-19.7 0-31.4 13-38.3 29.9h16.1"/><path d="m1045 1034.7h83.6s10.8-126.8-41.8-126.8c-55.6-.1-41.8 126.8-41.8 126.8z"/><path d="m1055.3 959.5s-2.9 52.1 29.5 52.1 32.4-52.1 32.4-52.1-30.4-35.5-61.9 0z" fill="#aa6b5b"/><path d="m1124.7 959.7c-7-15.8-18.5-30-37.4-30-19.7 0-31.4 13-38.3 29.9h16.1s2.4-9 5-9 4.7 9 4.7 9z"/><path d="m110.2 696.4c19.8 0 35.9 16.1 35.9 35.9v32.2c0 19.8-16.1 35.9-35.9 35.9-19.8 0-35.9-16.1-35.9-35.9v-32.2c0-19.8 16.1-35.9 35.9-35.9z" fill="#fde8e7"/><path d="m152.4 729.4s-4.5-38.6-41.4-38.6c-16.9 0-40 10.2-41.4 34.7v37.3c0 2.3 4.7 4.7 5.5 4.3s0-36.9 0-36.9 40 13.3 53-12.5c0 0 13.3 11.4 17.3 12.2v37.1s2.4.8 4.7-2.3"/><path d="m104.6 764.3s-9 7.1-10.9 6.1c-1.2-.6-.2-2.8.3-4 0 0-10.6 4.2-1.5 10s17.6-6.1 17.6-6.1 9.7 9.1 17 6.1 5.5-6.4 0-10c0 0 4.2 4.9.6 4.9s-9.1-7.6-12.8-7c0 0-.6.9-4 .9-2.1-.1-4.3-.4-6.3-.9z"/><path d="m884 1028.8c19.8 0 35.9 16.1 35.9 35.9v32.2c0 19.8-16.1 35.9-35.9 35.9-19.8 0-35.9-16.1-35.9-35.9v-32.2c0-19.9 16.1-35.9 35.9-35.9z" fill="#fde8e7"/><path d="m851.8 1090h-6.4v-41.7s9.6-38.5 38.5-38.5c0 0-6.4 9.6-3.2 12.8 0 0 6.4-6.4 19.2-6.4 0 0-3.2 6.4 0 9.6 0 0 22.5 6.4 22.5 22.4v38.5h-6.4v-22.4s0-16-9.6-16h-41.7c-9.6 0-12.8 9.6-12.8 16v25.7z" fill="#ffdd2e"/><path d="m796.7 558.1c19.8 0 35.9 16.1 35.9 35.9v32.2c0 19.8-16.1 35.9-35.9 35.9-19.8 0-35.9-16.1-35.9-35.9v-32.2c0-19.9 16.1-35.9 35.9-35.9z" fill="#aa6b5b"/><path d="m764.5 619.3h-6.4v-41.7s9.6-38.5 38.5-38.5c0 0-6.4 9.6-3.2 12.8 0 0 6.4-6.4 19.2-6.4 0 0-3.2 6.4 0 9.6 0 0 22.5 6.4 22.5 22.5v38.5h-6.4v-22.5s0-16-9.6-16h-41.7c-9.6 0-12.8 9.6-12.8 16v25.7z" fill="#582f2b"/><path d="m491.5 921s20.7 112.1 30.5 127.8 29.5 8.8 29.5 8.8-27.9-108.9-30.5-114c-2-3.9-8.6-12.5-10.4-15-.3-.5-.7-.8-1.2-1z" fill="#d68056"/><path d="m550.5 1056.7c1.2 1.8 2.2 3.8 3 5.9 1.1 2.7 2.4 5.4 3.9 7.9 0 0-2 1-3 0s-4.9-5.9-4.9-6.9 1 12.8 4.9 16.7l3.9 3.9s-7.9 1-10.8 1-9.8 2-13.8-7.9-12.7-26.4-14.7-33.4 31.5 12.8 31.5 12.8z" fill="#d68056"/><path d="m489.3 896.8s.7 21.7 3.7 30.2 34 2.7 34 2.7.3-37.7-1.6-37.5z" fill="#d68056"/><path d="m666.5 1005.3c27.3 29 69.7 199.1 69.7 199.1l-236.5-4.2c18.2-190.8 33.2-194.9 33.2-194.9z" fill="#713267"/><path d="m518.1 787.8s-37.7-15.8-29.2 112.4c0 0 4.4 7.2 49.4 5 0 0 22.2-125.5-20.2-117.4z" fill="#cf5232"/><path d="m561.4 744.6s.3 9.2.9 20.6c.9 18.7 2.4 43.2 3.8 43.2 2.4 0 53.2-13.7 53.2-13.7v-60.7z" fill="#d88b72"/><path d="m668.2 773.1c10 45.1 28.5 205.8-.7 237.4 0 0-93.8 1-131.8 1-15.3 0-22.3-36.2-25.2-79.5-4.3-63.8.4-142.8.4-142.8l42.4-19.3s-.7 23.4 37.9 25.8 32.7-28.2 32.7-28.2" fill="#eba84a"/><path d="m621.5 764-34.6 32.8s4 17.8 20.3 8.9 25.8-27.7 25.8-27.7z" fill="#fcf3ea"/><path d="m557.6 766 30.9 30.2s-3.4 17.9-17.9 10.2-23-25.8-23-25.8z" fill="#fcf3ea"/><path d="m525.5 753 125.8 2s19.6-163.4-62.9-163.4-62.9 161.4-62.9 161.4z"/><path d="m536.1 677.4s-4.9 86.6 49 86.6 53.9-86.6 53.9-86.6-50.6-58.8-102.9 0z" fill="#d88b72"/><path d="m651.2 677.8c-11.6-26.3-30.7-49.9-62.1-49.9-32.7 0-52.2 21.6-63.6 49.7h26.7s4-15 8.3-14.9 7.7 15 7.7 15z"/><path d="m609.4 680.4s-14 .2-17.8 2.8" fill="none" stroke="#270704" stroke-miterlimit="10"/><path d="m557.5 679s8.9-.1 11.6 3.1" fill="none" stroke="#270704" stroke-miterlimit="10"/><ellipse cx="600.6" cy="698.6" fill="#fff" rx="10.1" ry="8.3"/><path d="m575 701.3c-.3 4.6-6.5 6.7-11.9 5s-9.2-8.1-8-12.5c.7-2 2.1-3.5 4-4.3 2.2-1.1 6.2-.4 8.3.8 6 3.6 8 5.7 7.6 11z" fill="#fff"/><path d="m575 701.3c-.3 4.6-6.5 6.7-11.9 5-3.2-1-2.2-13.3-.8-15.5.2-.2.8-1.1.9-1.3s-.1.1 0 0c.2-.3.6-.4 1-.3 1.1.2 2.2.6 3.2 1.1 6 3.6 8 5.7 7.6 11z"/><path d="m597.8 690.7c-2.9 1.1-1.8 15.8.4 16.2 7.8 1.2 12.4-3.5 12.5-8.1s-4.3-8.4-9.9-8.6c-1-.1-2.1.1-3 .5z"/><path d="m581.6 710.4s-3.6 7.5-2.2 9.3c.7.9 4.4 0 4.4 0" fill="none" stroke="#000" stroke-miterlimit="10"/><path d="m571.1 740.2s.5-5.6 18.5-1.7c16.6 3.6-1.3 11.6-5.8 11.6s-12.7-9.9-12.7-9.9z" fill="#a44b36"/><path d="m571.1 740.2s14.8 8.5 24.6.3" fill="none" stroke="#000" stroke-miterlimit="10"/><path d="m663.6 903.3s-2 21.6 0 30.5 33.4 6.9 33.4 6.9 4.9-37.4 3-37.4z" fill="#d68056"/><path d="m677.5 771.6s-31.3-21.8-15.2 133.9c0 0 4.1 9 39.9 9.7 0 0 8.7-150.3-24.7-143.6z" fill="#cf5232"/><path d="m665.5 929.6c-1.5.2-2.4 2.9-2.7 4.4-3.7 16.6-25.3 109.2-28.2 126.3-3.2 18.7 22.8 8.3 27.8 3.3s36.5-125 36.1-131.9c-.4-5.8-24.9-3.2-33-2.1z" fill="#d68056"/><path d="m633.8 1071.4s-8 19.7-8.7 25.9 7.5-7.6 7.5-7.6-1 19.3-2.8 20.7 17.7-1.6 21.8-6.5c3.1-3.8 11.3-37.5 10.8-40.4s-27.8-3.3-27.8-3.3z" fill="#d68056"/><path d="m111.3 453.9s21.5 132 20.4 166.4c0 0 183.6-11.8 194.3-5.4s1.1-154.6-7.5-166.4-207.2 5.4-207.2 5.4z" fill="#f3decd"/><path d="m150.6 476.2h13.5c.8 0 1.5-.7 1.5-1.5s-.7-1.5-1.5-1.5h-13.5c-.8 0-1.5.7-1.5 1.5s.7 1.5 1.5 1.5z" fill="#f3decd"/><path d="m153.9 479.6c3.3 0 6.3-1.4 9.5-2 4.3-.9 8.7-1.5 13.1-1.6 1.9-.1 1.9-3.1 0-3-3.6.1-7.2.5-10.7 1.1-3.9.6-8 2.6-11.9 2.5-1.9 0-1.9 3 0 3z" fill="#27385b"/><path d="m156.3 492.5c5.9-.1 11.8-.6 17.7-.6.8 0 1.5-.7 1.5-1.5s-.7-1.5-1.5-1.5c-5.9 0-11.8.5-17.7.6-1.9 0-1.9 3 0 3z" fill="#27385b"/><path d="m153.6 479.3c0 6.4-.1 12.8.1 19.2.1 2.2-.6 4.5-.6 6.6 0 1-.3 1.9.6 2.7 1.5 1.5 4.2.1 5.8-.3 5.9-1.4 11.9-2.1 18-2.2 1.9 0 1.9-3 0-3-4.3.1-8.7.5-12.9 1.2-2 .3-3.9.6-5.9 1.1l-1.9.6c-1 .5-1.3.5-.8-.1.3.3.7-3.7.6-3.2.1-2.2-.1-4.5-.2-6.7-.1-5.3 0-10.6 0-15.9 0-.8-.7-1.5-1.5-1.5s-1.3.7-1.3 1.5z" fill="#27385b"/><path d="m191.1 471.9c-6.1-.1-9.9 8.4-11.1 13.4-1.3 5.3-3.6 15.6 2.9 18.7 5.6 2.7 10.3-5.6 11.8-9.8 1.3-3.5 1.6-7.8 1.8-11.5.2-3.4.8-8.2-1.1-11.3-1-1.6-3.6-.1-2.6 1.5 2.3 3.7.7 11.3.1 15.3-.4 3.3-2.1 11-5.8 12.2-8 2.6-5.2-10.5-4.4-13.8.9-3.5 3.6-11.9 8.4-11.9.8 0 1.5-.7 1.5-1.5s-.7-1.3-1.5-1.3z" fill="#27385b"/><path d="m185.5 493c1.3 2.2 3.6 3.8 5.4 5.7 1.7 1.7 3.7 3.1 6 4.1 1.7.9 3.2-1.7 1.5-2.6-2-.8-3.8-2.1-5.4-3.6-1.5-1.7-3.8-3.1-4.9-5.1-.4-.7-1.4-.9-2.1-.5-.6.4-.8 1.3-.5 2z" fill="#27385b"/><path d="m199.8 472.2c0 7.3-.9 15.2.3 22.4.6 3.8 2.8 8 7.3 7.3 4.3-.7 6.3-5.5 7.4-9.2 2.1-7.1 1.7-14.9 1.7-22.2 0-.8-.7-1.5-1.5-1.5s-1.5.7-1.5 1.5c0 7.5 1.4 18.5-3 25.1-.9 2.7-3.3 2.8-7.2.1-.3-1.5-.5-3.1-.5-4.7-.1-1.8 0-3.7 0-5.5v-13.3c0-.8-.7-1.5-1.5-1.5s-1.4.7-1.5 1.5z" fill="#27385b"/><path d="m223.2 469.5c0 2.6.2 5.1-.5 7.6-.7 2.7-1.9 5.2-2.5 7.9-.4 2-.9 4.1-1.3 6.1-.4 1.8-.3 5.5-1.4 7.1s1.5 3.1 2.6 1.5 1-3.9 1.3-5.6c.5-2.8 1.1-5.5 1.7-8.3.7-3.2 2.3-6.1 2.9-9.3.3-2.3.4-4.7.2-7 0-.8-.7-1.5-1.5-1.5s-1.5.6-1.5 1.5z" fill="#27385b"/><path d="m223.8 471.6c.3 5.2 1.6 10.4 3.6 15.2 1.6 4 3.4 10 6.7 13 1.4 1.3 3.6-.8 2.1-2.1-2.9-2.6-4.6-8.4-6-12-1.9-4.4-3-9.2-3.4-14-.1-1.9-3.1-1.9-3-.1z" fill="#27385b"/><path d="m222.1 491c2.8 0 5.5-.1 8.2-.2 1.9 0 1.9-3 0-3-2.8.1-5.5.2-8.2.2-.8 0-1.5.7-1.5 1.5s.7 1.5 1.5 1.5z" fill="#27385b"/><path d="m239.1 469.1v18.8c0 3.9-.6 8.1-.1 11.9.2.8 1.1 1.2 1.9 1 3.9-1.3 8.3-1.6 11.9-3.6 1.7-.9.2-3.5-1.5-2.6-3.3 1.8-7.6 2.1-11.2 3.3l1.9 1c-.6-4.1.2-9 .2-13.1v-16.8c0-.8-.7-1.5-1.5-1.5s-1.6.7-1.6 1.6z" fill="#27385b"/><path d="m255.3 469.8h8.4c.8 0 1.5-.7 1.5-1.5s-.7-1.5-1.5-1.5h-8.4c-.8 0-1.5.7-1.5 1.5s.7 1.5 1.5 1.5z" fill="#27385b"/><path d="m259.9 468.7c.1 8.6-.2 17.2-1 25.7-.2 1.9 2.8 1.9 3 0 .8-8.5 1.1-17.1 1-25.7 0-.8-.7-1.5-1.5-1.5s-1.5.6-1.5 1.5z" fill="#27385b"/><path d="m255.1 498h11.8c.8 0 1.5-.7 1.5-1.5s-.7-1.5-1.5-1.5h-11.8c-.8 0-1.5.7-1.5 1.5s.7 1.5 1.5 1.5z" fill="#27385b"/><path d="m271.4 469.2h8.5c1.6 0 3.5.4 5-.4 1.7-.9.2-3.5-1.5-2.6-.9.5-4 0-5 0h-7c-.8 0-1.5.7-1.5 1.5s.7 1.5 1.5 1.5z" fill="#27385b"/><path d="m275.4 469.6c0 9-.2 18.1-.2 27.1 0 .8.7 1.5 1.5 1.5s1.5-.7 1.5-1.5c0-9 .2-18 .2-27.1 0-.8-.7-1.5-1.5-1.5s-1.5.7-1.5 1.5z" fill="#27385b"/><path d="m289.2 467.3c.8 2.8 2 5.4 3.7 7.8s4 4.3 6.6 5.7c.7.4 1.6.1 2-.6s.1-1.6-.5-2c-2.4-1.2-4.5-3.1-6-5.4-1.3-2-2.3-4.1-2.9-6.3-.5-1.9-3.3-1.1-2.9.8z" fill="#27385b"/><path d="m307.2 465.5c-1 3.6-3.2 6.3-5.7 9-1.3 1.3-2.3 2.3-2.6 4.2-.5 3.2 0 6.9-.1 10.2-.1 3.8-.1 7.6-.1 11.4 0 .8.7 1.5 1.5 1.5s1.5-.7 1.5-1.5c0-3.8 0-7.6.1-11.4.1-3.2-.5-7.1.5-10 .8-2.2 2.7-3.5 4.1-5.4 1.6-2.1 2.9-4.6 3.6-7.2.2-.8-.3-1.6-1.1-1.8-.7-.1-1.4.3-1.7 1z" fill="#27385b"/><path d="m200.5 511.3v25.8c0 .8.7 1.5 1.5 1.5s1.5-.7 1.5-1.5v-25.8c0-.8-.7-1.5-1.5-1.5s-1.5.7-1.5 1.5z" fill="#27385b"/><path d="m202.7 513.1h8.6c.8 0 1.5-.7 1.5-1.5s-.7-1.5-1.5-1.5h-8.6c-.8 0-1.5.7-1.5 1.5s.7 1.5 1.5 1.5z" fill="#27385b"/><path d="m201.4 524.9h6.4c.8 0 1.5-.7 1.5-1.5s-.7-1.5-1.5-1.5h-6.4c-.8 0-1.5.7-1.5 1.5s.7 1.5 1.5 1.5z" fill="#27385b"/><path d="m226.6 510.4c-6.3-.3-11.1 5.8-12.4 11.7-.8 3.8-2.1 12.8 2.1 15.5 4.7 3 10.9-1.5 13.4-5.3 1.9-2.9 3-6.3 3.1-9.8.3-2 .2-4-.1-6-.3-1.3-1.4-2.5-1.9-3.7-.7-1.8-3.6-1-2.9.8 1.3 3.2 2.1 5.3 1.8 8.9-.3 4.6-2.3 10.7-7.4 12.1-6.8 2-6.2-5.2-5.7-9.4.5-4.9 4.1-12 9.8-11.8 2.1.1 2.1-2.9.2-3z" fill="#27385b"/><path d="m237.2 511.3c0 8.4 1.2 18.1-1 26.3l2.2-.9-.5-.2c-1.8-.8-3.3 1.8-1.5 2.6l.5.2c.7.4 1.7.1 2.1-.6.1-.1.1-.2.1-.3 2.3-8.5 1.1-18.4 1.1-27.1 0-.8-.7-1.5-1.5-1.5s-1.5.7-1.5 1.5z" fill="#27385b"/><path d="m240.9 514.7c1-.1 1.9-.1 2.9-.1 3.1.2 3.9.7 3.9 3.8-.1 2.7-.4 3.2-2.6 4.5-1.4.7-2.9 1.4-4.5 1.8-.8.2-1.3 1.1-1 1.9.1.3.3.6.6.8 5.8 3.3 10.5 7.9 15.9 11.6 1.6 1.1 3.1-1.5 1.5-2.6-5.5-3.8-10.1-8.3-15.9-11.6l-.4 2.7c4.3-1.6 11.7-4.6 10.6-10.6-.9-5.1-7-5.5-11-5.3-1.8.2-1.8 3.2 0 3.1z" fill="#27385b"/><path d="m171.3 588.1c.1-8.9 1.6-17.7 4.5-26.1 1.2-3.4 3-6.6 4.4-9.9.8-1.8 1.4-5.4 2.8-6.8l-2.5-.7c2.3 7 3.5 14.5 4.9 21.8 1.4 7 2.6 14.7 4.9 21.5.6 1.8 3.5 1 2.9-.8-2.3-6.7-3.6-14.5-4.9-21.5-1.4-7.2-2.6-14.8-4.9-21.8-.2-.8-1.1-1.3-1.9-1-.2.1-.4.2-.6.4-1.6 1.6-2.1 4.3-3 6.4-1.5 3.7-3.4 7.3-4.9 11.1-3.3 8.6-4.6 18.3-4.8 27.5.1 1.9 3.1 1.9 3.1-.1z" fill="#27385b"/><path d="m173.7 575.6h13.4c.8 0 1.5-.7 1.5-1.5s-.7-1.5-1.5-1.5h-13.4c-.8 0-1.5.7-1.5 1.5s.6 1.5 1.5 1.5z" fill="#27385b"/><path d="m211.7 544.8v22.3c0 3.3.1 6.7 0 10 0 1.6-1.1 5-.4 6.4 1.2 2.5 5 1.3 7.2 1.1 5.6-.7 11.3-1 17-1.1 1.9 0 1.9-3 0-3-4.1-.1-8.2.4-12.3.7-2.4.2-4.8.2-7.1.6s-1.8 1.3-1.5-1.4c1.1-11.7.1-23.9.1-35.7 0-.8-.7-1.5-1.5-1.5s-1.5.7-1.5 1.6z" fill="#27385b"/><path d="m249 542.2v19c0 6 1.2 13.6-.3 19.5-.1.5 0 1.1.4 1.5 1.6 1.4 2.6 1.1 4.9 1.1h9.9c4.3 0 10.6.6 14.5-1.5 1.7-.9.2-3.5-1.5-2.6-3.9 2.1-11.4 1.1-15.7 1.1-2.1 0-6.2.8-8.1 0-1.6-.7-.6.3-1.1-.2-.1-.1.1-4 .1-3.7 0-11.4 0-22.8 0-34.2 0-.8-.7-1.5-1.5-1.5s-1.6.7-1.6 1.5z" fill="#27385b"/><path d="m904.3 305.3s-16.7 150-12.2 185.2c0 0 145.9-1.5 176.3 0 0 0 18.2-179 10.6-185.2.2 0-162.5-7.7-174.7 0z" fill="#e4e4e4"/><path d="m836.3 773.7v13.9c0 4.1 1.3 10.8-1 14.4l2.7.4-.1-.3c-.6-1.8-3.5-1-2.9.8l.1.3c.2.8 1.1 1.3 1.9 1 .3-.1.6-.3.8-.6 2.3-3.4 1.5-8 1.5-11.9 0-6 0-12 0-17.9 0-.8-.7-1.5-1.5-1.5s-1.5.6-1.5 1.4z" fill="#e2363e"/><path d="m854 802.8c-1.5 1-5.7.2-7.4.2-3.2 0-6.4-.3-9.6-1.1-1.9-.4-2.7 2.5-.8 2.9 1.6.5 3.3.9 5 1.2 2.2.1 4.5.1 6.8 0 2.3 0 5.4.8 7.5-.6 1.6-1.1.1-3.6-1.5-2.6z" fill="#e2363e"/><path d="m862.8 776.4c-6.3.3-7.3 11.6-7.9 16-.5 3.4-1 6.5 1.2 9.5 2 2.6 5.3 4.3 8.5 3.2 7.8-2.7 11.2-12.9 11.6-20.2.2-3.9.2-6.9-2.9-9.5s-6.1-2.4-9.8-.8c-1.8.7-1 3.6.8 2.9 3.4-1.4 6.3-1.5 8.2 2.1 1.2 2.3.8 4.9.5 7.4-.7 5.3-2.9 10.6-7.3 13.9-2.7 2.1-5.6 1.6-7.4-1.5-1.5-2.6-.6-5.2-.3-8 .2-1.9 1.3-11.8 4.8-11.9 1.9-.1 1.9-3.1 0-3.1z" fill="#e2363e"/><path d="m881.3 775.6v16.8c0 3.8-.3 7.2 1.4 10.7.4.7 1.4 1 2.1.5.1-.1.2-.1.3-.2 7.2-7.8 13.4-16.5 15.8-27 .4-1.9-2.5-2.7-2.9-.8-2.2 10-8.2 18.3-15 25.7l2.4.3c-1.8-3.7-1-9.1-1-13.1v-12.8c0-.8-.7-1.5-1.5-1.5s-1.6.6-1.6 1.4z" fill="#e2363e"/><path d="m906.7 777.5h15.8c.8 0 1.5-.7 1.5-1.5s-.7-1.5-1.5-1.5h-15.8c-.8 0-1.5.7-1.5 1.5s.7 1.5 1.5 1.5z" fill="#e2363e"/><path d="m905.6 791.4h10.8c.8 0 1.5-.7 1.5-1.5s-.7-1.5-1.5-1.5h-10.8c-.8 0-1.5.7-1.5 1.5s.6 1.5 1.5 1.5z" fill="#e2363e"/><path d="m906.4 777.9c0 5.1-.2 10.1-.7 15.1-.1 2.3-.4 4.6-.9 6.8-.4.9-.5 1.9-.5 2.8 0 .8.7 1.5 1.5 1.5 7.5-.2 14.8.7 22.2.6.8 0 1.5-.7 1.5-1.5s-.7-1.5-1.5-1.5c-7.4.1-14.7-.9-22.2-.6l1.5 1.5c-.1-1.3.7-3 1-4.3.3-1.8.4-3.6.5-5.4.4-5.1.7-10 .7-15.1 0-.8-.7-1.5-1.5-1.5s-1.6.8-1.6 1.6z" fill="#e2363e"/><path d="m831.1 829.7h11.9c3.7 0 7.8-.7 11.3.5 1.8.6 2.6-2.3.8-2.9-3.4-1.1-6.9-.6-10.4-.6-4.5 0-9.1 0-13.6 0-.8 0-1.5.7-1.5 1.5s.7 1.5 1.5 1.5z" fill="#e2363e"/><path d="m840.6 828.7v14c0 3.5 1.3 9.9-.8 12.9-1.1 1.6 1.5 3.1 2.6 1.5 2-2.8 1.2-7.1 1.2-10.4 0-6 0-12 0-18 0-.8-.7-1.5-1.5-1.5s-1.5.6-1.5 1.5z" fill="#e2363e"/><path d="m857.7 828.2v29.1c0 .8.7 1.5 1.5 1.5s1.5-.7 1.5-1.5v-29.1c0-.8-.7-1.5-1.5-1.5s-1.5.7-1.5 1.5z" fill="#e2363e"/><path d="m863.2 829.2c5.1-.1 4.6 8.1 2.3 10.8s-5.3 4.7-8.6 5.8c-1.1.4-1.6 2.1-.4 2.7 5.7 3 11 6.8 15.6 11.3 1.4 1.3 3.5-.8 2.1-2.1-4.8-4.7-10.3-8.7-16.2-11.8l-.4 2.7c5.1-1.8 12-5.8 12.5-11.9.5-5.4-1.1-10.7-7-10.7-.8 0-1.5.7-1.5 1.5s.8 1.7 1.6 1.7z" fill="#e2363e"/><path d="m878.3 830.1c2.3 5.7-.7 13.2.4 19.2.5 2.8 2.4 3.9 5.2 3.5 9.6-1.5 13.8-17.6 13.9-25.4h-3c-.1 8.5-2.7 16.6-3 25-.1 1.9 2.9 1.9 3 0 .3-8.4 2.9-16.5 3-25 0-.8-.7-1.5-1.5-1.5s-1.5.7-1.5 1.5c-.2 4.4-1.2 8.8-3 12.8-.7 1.7-6.3 11.9-9.3 9.7-2-1.5-.8-9.6-.8-11.7 0-2.9.5-6.1-.6-8.8-.6-1.9-3.5-1.1-2.8.7z" fill="#e2363e"/><path d="m906.9 829.2c-.2 3.8-.8 7.5-1.6 11.2-.7 3.3.2 6.7-2.4 9.3-1.3 1.4.8 3.5 2.1 2.1 2.4-2.4 2.8-5 3-8.2.3-4.9 1.9-9.5 2-14.4-.1-1.9-3.1-1.9-3.1 0z" fill="#e2363e"/><path d="m908.4 831.2c0 6.5.1 13 .5 19.4 0 .8.7 1.5 1.5 1.5s1.5-.7 1.5-1.5c.5-4.3 3.4-8.3 5.5-11.9 1.6-3 2.6-6.9 4.5-9.6l-2.7-.4c1.8 4.7 2.5 10.2 3.4 15.1.8 3.8 1 8.3 2.6 11.8.8 1.8 3.4.2 2.6-1.5-1.5-3.5-1.7-8.3-2.5-12-1-4.6-1.6-9.8-3.2-14.1-.2-.8-1.1-1.3-1.9-1-.3.1-.6.3-.8.6-.8 1.4-1.5 2.9-1.9 4.5-1.3 2.7-2.7 5.4-4.2 8-1.9 3.4-3.8 6.7-4.3 10.6h3c-.4-6.5-.5-12.9-.5-19.4 0-.8-.7-1.5-1.5-1.5s-1.6.6-1.6 1.4z" fill="#e2363e"/><path d="m933 827.7v14c0 4.2.6 8.5-.5 12.6l2.5-.7-.4-.4c-1.4-1.3-3.5.8-2.1 2.1l.4.4c.6.6 1.6.6 2.1 0 .2-.2.3-.4.4-.6 1-3.8.7-7.5.7-11.4-.1-5.3 0-10.7 0-16 0-.8-.7-1.5-1.5-1.5s-1.6.6-1.6 1.5z" fill="#e2363e"/><path d="m936 828.7c4.3 0 7 1.5 9.2 5.3.9 1.3 1.7 2.7 2.4 4.2.9 2.2-.1 3-1.9 4-1.2.7-11 4.6-11.8 2.8s-3.4-.2-2.6 1.5c1.4 3.1 6 1.7 8.5.9 3.2-1 7.1-1.8 9.6-4.1 3.5-3.3.7-6.9-1.2-10.3-2.8-5-6.1-7.3-12-7.3-.8 0-1.5.7-1.5 1.5s.5 1.5 1.3 1.5z" fill="#e2363e"/><path d="m838 875.2v34.4c0 .8.7 1.5 1.5 1.5s1.5-.7 1.5-1.5v-34.4c0-.8-.7-1.5-1.5-1.5s-1.5.7-1.5 1.5z" fill="#e2363e"/><path d="m838 895.2c3.1.1 6.3-.1 9.3-.6 3.1-.6 6.2-1.9 9.3-2.1 1.9-.1 1.9-3.1 0-3-2.6.2-5 1.1-7.6 1.7-3.6.7-7.4 1.1-11.1 1-.8 0-1.5.7-1.5 1.5s.8 1.5 1.6 1.5z" fill="#e2363e"/><path d="m855.2 876.6v29.4c0 .8.7 1.5 1.5 1.5s1.5-.7 1.5-1.5v-29.3c0-.8-.7-1.5-1.5-1.5s-1.5.6-1.5 1.4z" fill="#e2363e"/><path d="m870.6 877.7c-.2 9.8-5.7 19-5.9 28.8 0 1.9 3 1.9 3 0 .1-4.6 1.9-10.3 3.1-14.7 1.4-4.8 2.6-9 2.7-14.1.1-1.9-2.9-1.9-2.9 0z" fill="#e2363e"/><path d="m871.4 876.3c1.3 2 .3 5.6.3 7.9.1 2.6.5 5.1 1.2 7.5 1.2 4.5 2.5 9.9 4.9 13.9 1 1.7 3.6.1 2.6-1.5-2.8-4.6-4.6-11.6-5.3-16.8-.5-3.7 1.1-9.2-1.1-12.5-1.1-1.6-3.7-.1-2.6 1.5z" fill="#e2363e"/><path d="m866.8 897.3h6.4c.8 0 1.5-.7 1.5-1.5s-.7-1.5-1.5-1.5h-6.4c-.8 0-1.5.7-1.5 1.5s.7 1.5 1.5 1.5z" fill="#e2363e"/><path d="m884.4 877.6h13.9c.8 0 1.5-.7 1.5-1.5s-.7-1.5-1.5-1.5h-13.9c-.8 0-1.5.7-1.5 1.5s.7 1.5 1.5 1.5z" fill="#e2363e"/><path d="m889.8 877.7c0 4.5.1 9.1 0 13.6-.1 3.9-1.3 7.6-1.6 11.4-.1 1.9 2.9 1.9 3 0 .3-3.9 1.5-7.5 1.6-11.4.1-4.5 0-9.1 0-13.6 0-.8-.7-1.5-1.5-1.5s-1.5.7-1.5 1.5z" fill="#e2363e"/><path d="m905.2 878.7h10.1c.8 0 1.5-.7 1.5-1.5s-.7-1.5-1.5-1.5h-10.1c-.8 0-1.5.7-1.5 1.5s.7 1.5 1.5 1.5z" fill="#e2363e"/><path d="m902.5 892h10.1c.8 0 1.5-.7 1.5-1.5s-.7-1.5-1.5-1.5h-10.1c-.8 0-1.5.7-1.5 1.5s.7 1.5 1.5 1.5z" fill="#e2363e"/><path d="m903.2 877.7c.1 5.4.6 10.4-1 15.6-1 3.1-2.5 6.8-2.5 10 0 .8.7 1.5 1.5 1.5h.4c5.9-.9 12.1-.5 18.1-.5.8 0 1.5-.7 1.5-1.5s-.7-1.5-1.5-1.5c-6.3 0-12.7-.4-18.9.6l1.9 1.5c0-1.5 1-3.1 1.3-4.5.5-2.3 1.2-4.5 1.8-6.9 1.2-4.7.6-9.5.5-14.2-.1-2.1-3.1-2.1-3.1-.1z" fill="#e2363e"/><path d="m938.8 874.6c-7-.1-14.6 2.5-12.3 10.9 1 3.5 3.4 5.1 6.3 7.1 1.5 1 8.6 4.3 5.7 7.6-2 2.2-8.7 2-10.4.5-1.5-1.3-3.6.8-2.1 2.1 3.3 2.9 5.6 2.7 9.7 1.5 2.8-.8 7.1-2 7.6-5.5s-4-5.5-6.3-7c-2.5-1.6-6.1-3.4-7.4-6.3-2.8-6.3 4.9-7.9 9.2-7.8 1.9-.1 1.9-3.1 0-3.1z" fill="#e2363e"/><path d="m942.2 325.9c-.2 5.7-2.4 10.7-4.2 16-1.9 5-3.4 10.2-4.5 15.5-.4 1.9 2.5 2.7 2.9.8 2.2-10.8 8.5-21.1 8.9-32.2 0-2-3-2-3.1-.1z"/><path d="m942.7 325.6c0 9.9-1.4 20.9 1.8 30.4.2.8 1.1 1.3 1.9 1 .3-.1.6-.3.8-.6.8-1.4.7-3 1.1-4.6 1-3.7 2.8-7.2 4.4-10.6 1-2.2 1.9-4.4 2.8-6.6s1.1-5.5 2.5-7.4l-2.7-.4c.4 2.4 0 5 .3 7.4.2 2.1.7 4.2 1 6.4 1 5.3 2.3 10.8 2.8 16.2.2 1.9 3.2 1.9 3 0-.4-5.1-1.6-10.2-2.6-15.3-.5-3-1.2-5.9-1.4-9-.2-2.2.2-4.3-.2-6.5-.2-1.4-2.1-1.3-2.7-.4-1.2 1.7-1.3 3.7-1.9 5.7-.9 2.9-2.1 5.7-3.3 8.4-1.1 2.4-2.3 4.7-3.2 7.2s-1.1 5.8-2.3 8l2.7.4c-3.1-9.2-1.7-20-1.8-29.6 0-.8-.7-1.5-1.5-1.5s-1.6.5-1.5 1.4z"/><path d="m969.5 355.6c-.1-5.9 1.6-11.9 3.5-17.4.8-2.3 1.7-4.5 2.6-6.7.3-.7 1.3-4.8 2.3-5.1l-1.8-1c1.8 10.1 6.2 19.5 7.9 29.6.3 1.9 3.2 1.1 2.9-.8-1.7-10.1-6.1-19.6-7.9-29.6-.2-.8-1.1-1.2-1.8-1-1.5.5-1.8 1.2-2.5 2.6-1.3 2.7-2.4 5.4-3.4 8.1-2.5 6.7-4.8 14.1-4.7 21.4-.1 1.9 2.9 1.9 2.9-.1z"/><path d="m970.4 343.1h9.2c.8 0 1.5-.7 1.5-1.5s-.7-1.5-1.5-1.5h-9.2c-.8 0-1.5.7-1.5 1.5s.7 1.5 1.5 1.5z"/><path d="m994.1 324.3c0 9.7.8 19.7-.3 29.3-.2 1.9 2.8 1.9 3 0 1.1-9.6.3-19.6.3-29.3 0-.8-.7-1.5-1.5-1.5s-1.5.6-1.5 1.5z"/><path d="m1009.2 325.6c-4.3 4.4-9 8.5-13.6 12.6-.5.5-.6 1.2-.2 1.8 2 3.2 4.2 6.3 6.8 9.2s6.4 5.6 8.5 8.9c1 1.6 3.6.1 2.6-1.5-1.8-2.8-4.8-5-7.1-7.4-3.1-3.3-5.9-6.8-8.2-10.7l-.2 1.8c4.6-4.1 9.2-8.2 13.6-12.6.6-.6.5-1.6-.1-2.1s-1.5-.5-2.1 0z"/><path d="m1017.5 326.1h13.6c.8 0 1.5-.7 1.5-1.5s-.7-1.5-1.5-1.5h-13.6c-.8 0-1.5.7-1.5 1.5s.6 1.5 1.5 1.5z"/><path d="m1016.4 340.4h11.6c.8 0 1.5-.7 1.5-1.5s-.7-1.5-1.5-1.5h-11.6c-.8 0-1.5.7-1.5 1.5s.7 1.5 1.5 1.5z"/><path d="m1017.3 329c0 7.2.9 14.6-2.2 21.3-.4.7-.1 1.6.6 2s1.6.1 2-.5c.8-1 6.2-.5 7.2-.6 3.6-.3 7.1-.3 10.7-.2.8 0 1.5-.7 1.5-1.5s-.7-1.5-1.5-1.5c-5 0-9.9.1-14.8.4-2.2.1-4.2.1-5.6 1.9l2.6 1.5c3.3-7.3 2.7-15 2.6-22.8 0-.8-.7-1.5-1.5-1.5s-1.6.7-1.6 1.5z"/><path d="m915.7 397.2c0-5.5.7-10.9 2.1-16.2.6-2.3 1.2-4.6 2-6.8s1.5-5.6 3-7.3h-2.2c.8 1.1.9 4.8 1.1 6.1.5 3 .6 6.1 1.2 9.1 1 5.6 2.3 11.2 3.5 16.8.4 1.9 3.3 1.1 2.9-.8-1.4-6.9-3.2-13.8-4-20.8-.5-3.8 0-9.4-2.5-12.5-.6-.6-1.5-.6-2.1 0-3 3.3-4.1 9.5-5.3 13.7-1.8 6.1-2.7 12.3-2.7 18.6 0 .8.7 1.5 1.5 1.5s1.4-.6 1.5-1.4z"/><path d="m915.5 386.8h9.2c.8 0 1.5-.7 1.5-1.5s-.7-1.5-1.5-1.5h-9.2c-.8 0-1.5.7-1.5 1.5s.7 1.5 1.5 1.5z"/><path d="m938.6 367.6c-.3 5.2-1 10.3-2.3 15.4-.8 3.5-2.8 6.6-3.1 10.2-.2 1.9 2.8 1.9 3 0 .2-2.1 1.5-4.2 2.2-6.2.6-2.1 1.1-4.3 1.5-6.5 1-4.2 1.6-8.6 1.8-12.9-.1-2-3.1-2-3.1 0z"/><path d="m938.6 368.2c-.1 6 .7 11.8 1 17.8.2 3.5.8 7.1 3.1 9.8.6.6 1.6.6 2.1 0 .2-.2.3-.4.4-.6 1.1-5.5 2.8-10.8 5.1-15.9 1.8-3.9 2.2-9.6 4.7-13h-2.6c.7 1.2.2 4.1.3 5.4.2 3.1.3 6.3.6 9.4.5 5 1.8 10.4 2 15.4 0 1.9 3 1.9 3 0-.1-2.8-1-5.4-1.3-8.1-.4-3.3-.7-6.7-.9-10-.2-3.1-.4-6.3-.5-9.4 0-1.5.2-2.7-.6-4.1-.4-.7-1.4-.9-2.1-.5-.2.1-.4.3-.5.5-2.6 3.4-3.1 9.2-4.8 13.1-2.4 5.3-4.1 10.8-5.3 16.5l2.5-.7c-2.8-3.3-2.1-8.5-2.5-12.5-.5-4.3-.8-8.7-.7-13 0-2-3-2-3-.1z"/><path d="m967 368.7h11.2c.8 0 1.5-.7 1.5-1.5s-.7-1.5-1.5-1.5h-11.2c-.8 0-1.5.7-1.5 1.5s.7 1.5 1.5 1.5z"/><path d="m964.6 384.4h8.5c.8 0 1.5-.7 1.5-1.5s-.7-1.5-1.5-1.5h-8.5c-.8 0-1.5.7-1.5 1.5s.7 1.5 1.5 1.5z"/><path d="m963.5 370c0 8.2-2.3 15.6-3.9 23.5-.2.8.3 1.7 1.1 1.9h.3c7.1.4 14.2.1 21.3-.8 1.9-.2 1.9-3.2 0-3-7.1.9-14.2 1.1-21.3.8l1.5 1.9c1.6-8.2 4-15.8 4-24.3 0-.8-.7-1.5-1.5-1.5s-1.5.7-1.5 1.5z"/><path d="m990.8 369.6c0 4.6-.5 9.1-1.6 13.6-.8 3.3-1.2 7.6-2.7 10.5-.9 1.7 1.7 3.2 2.6 1.5 1.6-3.2 2.2-7.7 3-11.2 1.1-4.7 1.7-9.6 1.7-14.4 0-.8-.7-1.5-1.5-1.5s-1.5.7-1.5 1.5z"/><path d="m995.7 369c3.9-1 9.1 2.3 5.6 6.8-1 1-2.3 1.8-3.6 2.4-1.8.7-3.4 1.5-5 2.6-.6.6-.6 1.5 0 2.1.1.1.2.2.3.2 4.8 2.9 7.9 8.2 11.8 12.1.6.6 1.6.5 2.1-.1s.5-1.5 0-2c-4.1-4.1-7.3-9.6-12.4-12.6l.3 2.4c4-3.1 11.4-3.6 10.8-10.2-.5-5.8-5.5-7.8-10.7-6.5-1.8.4-1.1 3.3.8 2.8z"/><path d="m1012.4 369.1h8.9c.8 0 1.5-.7 1.5-1.5s-.7-1.5-1.5-1.5h-8.9c-.8 0-1.5.7-1.5 1.5s.6 1.5 1.5 1.5z"/><path d="m1016.2 368.9c0 4.9.2 9.8-.2 14.7-.3 3.3-.9 6.6-.9 9.8l2.3-1.3-.2-.1c-1.7-.9-3.2 1.7-1.5 2.6l.2.1c.7.4 1.7.1 2.1-.6.1-.2.2-.5.2-.7.1-3.6.8-7.3 1.1-10.9.4-4.5 0-9.1 0-13.7 0-.8-.7-1.5-1.5-1.5s-1.6.7-1.6 1.6z"/><path d="m1012.6 396.1h9.2c.8 0 1.5-.7 1.5-1.5s-.7-1.5-1.5-1.5h-9.2c-.8 0-1.5.7-1.5 1.5s.7 1.5 1.5 1.5z"/><path d="m1044.3 367c-10.4-.1-14.9 11.2-15.7 20-.8 9.4 8 14.5 14.9 7.2 1.3-1.4-.8-3.5-2.1-2.1-3.5 3.7-9.2 3.3-9.8-2.4-.3-2.7.4-5.8 1.2-8.5 1.5-5.5 5.2-11.3 11.6-11.3.8 0 1.5-.7 1.5-1.5s-.8-1.4-1.6-1.4z"/><path d="m1055 367.1c-.2 5-3.7 10.4-5.7 15-1.7 4-2.7 8.3-4.3 12.2l2.5-.7-.2-.1c-1.5-1.2-3.6.9-2.1 2.1l.2.1c.6.6 1.6.6 2.2-.1.2-.2.3-.4.3-.6 2.1-5 3.4-10.3 5.6-15.4 1.7-4 4.2-8.2 4.5-12.7.1-1.7-2.9-1.7-3 .2z"/><path d="m1056 367.9c.5 4.7 2 9.2 2.6 13.9.6 4.4 2.2 8.7 3.1 13 .4 1.9 3.3 1.1 2.9-.8-1-4.6-2.4-9.1-3-13.7-.5-4.2-2.2-8.2-2.7-12.5-.1-1.8-3.1-1.9-2.9.1z"/><path d="m1051 385.4h8.8c.8 0 1.5-.7 1.5-1.5s-.7-1.5-1.5-1.5h-8.8c-.8 0-1.5.7-1.5 1.5s.7 1.5 1.5 1.5z"/><path d="m922.7 405.3c0 9.6.1 19.3 0 28.9-.2 4.7-.6 9.4-1.4 14-.5 3.8-.5 7.6-1.1 11.4l2.7-.4-.6-1.7c-.2-1.9-3.2-1.9-3 0 .1 1.1.4 2.2 1 3.2.4.7 1.4.9 2.1.5.3-.2.5-.5.6-.8.7-3.8.6-7.6 1.1-11.4.7-4.3 1.2-8.6 1.5-13 .3-10.2 0-20.5 0-30.7 0-.8-.7-1.5-1.5-1.5s-1.4.8-1.4 1.5z"/><path d="m948.9 411.1c-8.9 5.6-17.1 12.3-24.3 19.9-.6.6-.6 1.5 0 2.1 2.1 2.5 4.8 4.5 7 7l7.5 9c4.4 5.5 8.5 11.2 12.7 16.7 1.2 1.5 3.8 0 2.6-1.5-1.7-2.2-3-4.4-4.8-6.5-2.6-2.9-4.8-6.3-7.2-9.4-2.7-3.3-5.4-6.6-8.1-9.8-2.3-2.7-5.3-4.9-7.5-7.6v2.1c7.1-7.4 15.1-13.9 23.7-19.4 1.6-1 .1-3.6-1.6-2.6z"/><path d="m960.2 413.7c1.4 1.1 3.3.6 4.9.6 2.9-.1 5.9 0 8.8 0 .8 0 1.5-.7 1.5-1.5s-.7-1.5-1.5-1.5h-6.9c-1.3 0-4.2.6-5.3-.2-1.6-1.1-3 1.5-1.5 2.6z"/><path d="m967.4 413.7c.1 14 .4 28.1-2.9 41.8-.5 1.9 2.4 2.7 2.9.8 3.4-14 3-28.4 3-42.6 0-.8-.7-1.5-1.5-1.5s-1.5.7-1.5 1.5z"/><path d="m960.1 459.9h16.3c.8 0 1.5-.7 1.5-1.5s-.7-1.5-1.5-1.5h-16.3c-.8 0-1.5.7-1.5 1.5s.7 1.5 1.5 1.5z"/><path d="m992 414.5c0 7.5.1 14.8-1.3 22.3-.7 3.7-1.6 7.5-2.4 11.2-.6 2.7-.8 6.5-2.4 8.8-1.1 1.6 1.5 3.1 2.6 1.5 1.5-2.1 1.7-5.2 2.2-7.7 1-4.3 2-8.7 2.8-13 1.5-7.8 1.4-15.2 1.4-23.1 0-.8-.7-1.5-1.5-1.5s-1.4.7-1.4 1.5z"/><path d="m991.2 413.7c.1 4.4 2.2 8.7 3.5 12.9 1.5 4.9 3.7 9.2 6 13.8 2.1 4.1 4.2 8.1 6.1 12.3.8 1.9 1 4.2 2.7 5.3s3.1-1.5 1.5-2.6c.1.1-.8-2.4-.8-2.4-.6-1.6-1.3-3.1-2-4.7-1.4-3-3.1-5.8-4.6-8.8-2-4-4.2-7.8-5.5-12-.7-2.2-1.2-4.5-1.9-6.7s-2-4.9-2-7.2c0-.8-.7-1.5-1.5-1.5s-1.5.8-1.5 1.6z"/><path d="m1013.8 409.5c0 8.4.6 17-1.2 25.2-.8 3.5-1.9 6.9-2.5 10.4-.2 1.3-.5 2.6-.6 3.9-.2 1.7.3 4.6-.5 6.2s1.7 3.2 2.6 1.5c1.3-2.7.6-6.1 1.1-9 .7-4.4 2.1-8.6 3-13 1.6-8.3 1.2-16.7 1.1-25.1 0-.8-.7-1.5-1.5-1.5s-1.5.6-1.5 1.4z"/><path d="m1028.2 410.3c1.4 2.5.2 7.8.2 10.6 0 4.6.3 9.3-.3 13.9-1 7.5-2.7 14.9-3.1 22.4-.1 1.9 2.9 1.9 3 0 .4-8.7 3-17.2 3.4-25.9.2-4.7 0-9.4 0-14 0-2.6.7-6.1-.6-8.5-.9-1.7-3.5-.2-2.6 1.5z"/><path d="m1030.3 409.8c6.1 0 11.7.7 16.8 4.4s7.2 12.2 5.4 18.1c-1.7 5.7-5.6 11-9.3 15.6-3.4 4.2-11.7 14-17.7 8.3-1.4-1.3-3.5.8-2.1 2.1 5.2 4.9 12.1 1.3 16.5-2.5 6.6-5.8 11.7-13.1 15-21.3 2.5-6.4 1-14.9-3.4-20.3-5-6.1-13.9-7.3-21.2-7.3-.8 0-1.5.7-1.5 1.5s.7 1.4 1.5 1.4z"/><g fill="#027db6"><path d="m87.2 945.5c-.1 4.9-.7 10.1-.3 14.9.3 2.7 2.3 4.8 5.2 4.4s6.4-3.9 8.2-6.1c3-3.8 4.2-7.4 5.7-11.8l-2.9-.8c-.8 5.7-2.3 11.7-2.3 17.5 0 .8.7 1.5 1.5 1.5s1.5-.7 1.5-1.5c0-5.5 1.4-11.2 2.2-16.7.2-.8-.3-1.6-1.1-1.8s-1.6.3-1.8 1c-.9 2.7-1.4 5.2-2.9 7.6-1.2 1.9-3.9 6.5-6.5 6.8-.6.6-1.2.4-2-.4-1.5 0-2-.5-1.7-1.7-.4-1 .1-2.9.1-4l.2-9c-.1-1.8-3.1-1.8-3.1.1z"/><path d="m110 946.3-.2 10.1c0 2.3-.8 4.4-.7 6.8.1 1.9 3.1 1.9 3 0-.1-2.2.6-4.5.7-6.8l.2-10.1c0-1.9-3-1.9-3 0z"/><path d="m109.8 946.9c.2 3 2 5 3.8 7.3 2 2.6 3.6 5.7 5.4 8.4.4.7 1.4.9 2.1.5.4-.3.7-.7.7-1.3 0-2.8.7-5.6.9-8.3.2-2.1-.1-4.2.4-6.2s-2.5-2.7-2.9-.8c-.3 2.2-.5 4.3-.5 6.5-.2 2.9-.9 5.9-.9 8.8l2.8-.8c-1.4-2.1-2.8-4.1-4-6.2-1.4-2.6-4.6-4.9-4.8-7.9-.1-1.9-3.1-1.9-3 0z"/><path d="m126 948.9c.7.4 1.5.6 2.3.5h2.5c1.9 0 1.9-3 0-3-.7 0-1.4 0-2.1 0-.4 0-1 .1-1.2 0-.7-.4-1.6-.2-2.1.5-.3.7-.1 1.6.6 2z"/><path d="m128.8 948.1c0 2.8-.3 5.5-1 8.2-.1.5-1 4.5-.6 4.4-1.9.5-1.1 3.4.8 2.9 2.2-.5 2-3.3 2.4-5.1.3-1.5.9-3 1.2-4.6.2-1.9.3-3.9.2-5.8 0-.8-.7-1.5-1.5-1.5s-1.5.6-1.5 1.5z"/><path d="m123.5 963.9 8.2.1c1.9 0 1.9-3 0-3l-8.2-.1c-1.9 0-1.9 3 0 3z"/><path d="m137.7 949.5c4.2.1 8.6.4 12.8 0 1.9-.2 1.9-3.2 0-3-4.2.4-8.6 0-12.8 0-2 0-2 3 0 3z"/><path d="m143.8 948.3-.3 16.5c0 1.9 3 1.9 3 0l.3-16.5c0-1.9-3-1.9-3 0z"/><path d="m156.7 950c3.3.1 7 .6 10.2-.1 1.9-.4 1.1-3.3-.8-2.9-1.4.2-2.8.2-4.2.1l-5.2-.1c-1.9 0-1.9 3 0 3z"/><path d="m156.3 958.7 9 .2c1.9 0 1.9-3 0-3l-9-.2c-1.9 0-1.9 3 0 3z"/><path d="m154.1 951.5c-.1 3.7-.5 7.5-1.4 11.1-.2.8.3 1.6 1.1 1.8.2.1.5.1.8 0 4.6-1.4 10-.6 14.7-.5 1.9 0 1.9-3 0-3-5-.1-10.6-.8-15.5.6l1.9 1.8c.9-3.9 1.4-7.9 1.5-11.9 0-.8-.7-1.5-1.5-1.5s-1.6.8-1.6 1.6z"/><path d="m173.5 948.5c0 2.7.1 5.5-.1 8.2-.2 2.5-1.2 4.8-1.2 7.2 0 .8.7 1.5 1.5 1.5s1.5-.7 1.5-1.5c0-2.4 1-4.8 1.2-7.2.2-2.7.1-5.5.1-8.2 0-.8-.7-1.5-1.5-1.5s-1.5.6-1.5 1.5z"/><path d="m174.7 950.2c2 0 5.3-.5 7.2.5.1.1 2.2 2 1.9 1.6 1.4 1.8.6 2.9-.6 4.2-2.8 3.1-7.1 4.4-11 5.2l1.9 1v-.2c-.3-1.9-3.2-1.1-2.9.8v.2c.2.8 1.1 1.2 1.9 1 5.1-1.1 13.4-3.8 14.5-9.8.5-2.9-1.6-4.8-3.6-6.4-2.4-1.9-6.3-1.1-9.2-1.2-2 0-2 3-.1 3.1z"/><path d="m201.4 949c-.1 3.3-.2 6.5-.5 9.7-.1.7-.9 4.7-.8 4.7-1.9.2-1.9 3.2 0 3 2.4-.3 3-3.1 3.4-5.2.7-4 1-8.1.9-12.2.1-1.9-2.9-1.9-3 0z"/><path d="m201.4 950.3c-.2 5.5 2.6 10.2 5.8 14.4.4.7 1.4.9 2.1.5.2-.1.4-.3.5-.5.7-1.2.9-2.5 1.6-3.8.9-1.5 1.6-3.1 2.5-4.7 1.4-2.8 2.9-5 3.2-8.1l-2.6 1.1c.3.3-.1 1.8-.1 2.2.1 1.4.3 2.8.7 4.1.7 3 1 6.1 1.9 9 .6 1.8 3.5 1 2.9-.8-1-3.5-1.7-7.1-2.3-10.7-.3-1.9.5-4.3-1-5.9-.6-.6-1.6-.5-2.1.1-.3.3-.4.6-.4 1-.3 3-2.5 6-3.8 8.8-.6 1.2-1.5 2.4-2.1 3.6-.4.8-.5 1.9-1 2.6h2.6c-2.9-3.8-5.6-8-5.4-12.9 0-1.9-3-1.9-3 0z"/><path d="m223.8 950.4 7.5.1c1.9 0 1.9-3 0-3l-7.5-.1c-1.9 0-1.9 3 0 3z"/><path d="m225.5 949.5c0 2.3-.1 4.6-.1 6.9 0 1.5-.1 4.3-1 5.6-1 1.6 1.6 3.2 2.6 1.5.9-1.7 1.3-3.5 1.4-5.4.2-2.9.1-5.8.1-8.7 0-1.9-3-1.9-3 .1z"/><path d="m222.4 965.8 7.9.1c1.9 0 1.9-3 0-3l-7.9-.1c-1.9 0-1.9 3 0 3z"/><path d="m237.4 949.7c0 2.7 0 5.3-.1 8-.1 1.6-.4 4.8-1.5 6.1-1.2 1.5.9 3.6 2.1 2.1 3.3-4.2 2.4-11.2 2.5-16.2-.1-2-3.1-2-3 0z"/><path d="m237 950.2c0 2.6 1.9 4.5 2.9 6.7 1.1 2.6 2.5 5 4 7.4.4.7 1.4.9 2.1.5.2-.1.4-.3.5-.5.4-.7.6-1.5.6-2.3.3-1.7.8-3.4 1.5-5 1-2.3 2.3-4.9 2.5-7.3.2-1.9-2.8-1.9-3 0-.2 2.3-1.8 5-2.6 7.1-.6 1.2-1 2.5-1.3 3.8-.1.7.1 1.7-.3 2.2h2.6c-1.3-1.9-2.5-4-3.4-6.1-.4-1-.8-2-1.4-3s-1.6-2.2-1.7-3.5c0-1.9-3-1.9-3 0z"/><path d="m260.7 948.9c-5.1 1.3-15.1 17.7-4.8 17.8 4.6 0 7.9-3.4 9.6-7.4 1.4-3.4 1.4-9.9-3.3-10.2-1.9-.1-1.9 2.9 0 3 2.2.1.5 6.3-.2 7.5-1.2 2-3.8 4.8-6.5 4-4-1.2 3.9-11.3 6-11.9 1.8-.4 1-3.3-.8-2.8z"/><path d="m268.6 950c0 2.9-.1 5.9-.2 8.8 0 2.2-.6 4.4-.8 6.6-.2 1.9 2.8 1.9 3 0 .2-2.2.8-4.3.8-6.6.1-2.9.1-5.9.2-8.8 0-1.9-3-1.9-3 0z"/><path d="m271.2 951.8c.6 0 3.1-.4 3.5.2.7 1.2-1.1 1.7-1.8 1.9-1.4.5-3.1.8-4.2 1.6-.7.5-.9 1.4-.5 2.1.1.1.1.2.2.2.7.6 1.4 1.1 2.3 1.5 1.4.9 2.7 1.9 3.9 3.1 1.5 1.3 2.6 3.3 4.7 3.4 1.9.1 1.9-2.9 0-3-.3 0-1.2-1.2-1.4-1.4-.9-.9-1.8-1.7-2.8-2.5-.7-.6-1.5-1.3-2.3-1.8-.7-.5-1.8-.7-2.3-1.3l-.3 2.4c2.5-1.8 7.2-1.2 7.5-5.2.3-4.2-3.3-4.2-6.5-4.1-1.9-.1-1.9 2.9 0 2.9z"/><path d="m282.7 951.7 6.2.1c1.9 0 1.9-3 0-3l-6.2-.1c-1.9 0-1.9 3 0 3z"/><path d="m284.6 950.7c-.1 2.3-.4 4.7-1 6.9-.3 1.3-.3 4.9-1.2 5.8-1.4 1.3.7 3.4 2.1 2.1 1.7-1.5 1.4-4.1 1.8-6.1.7-2.8 1.2-5.7 1.3-8.7 0-.8-.7-1.5-1.5-1.5s-1.5.7-1.5 1.5z"/><path d="m280.9 966.5 6.5.1c1.9 0 1.9-3 0-3l-6.5-.1c-2 0-2 3 0 3z"/><path d="m294.1 951.8c3 0 6.1-.1 9.1-.1.8 0 1.5-.7 1.5-1.5s-.7-1.5-1.5-1.5c-3 0-6.1.2-9.1.1-1.9 0-1.9 3 0 3z"/><path d="m297.5 950.9c-.1 3-.5 6-1.2 8.9-.4 1.7-.4 3.7-.9 5.3l1-1h-.1c-1.9.3-1.1 3.2.8 2.9h.1c.5-.1.9-.5 1-1 .7-1.9.8-4.3 1.2-6.4.7-2.8 1-5.7 1-8.7 0-1.9-3-1.9-3 0z"/><path d="m307.2 952 5.9.1c1.9 0 1.9-3 0-3l-5.9-.1c-1.9 0-1.9 3 0 3z"/><path d="m309.3 950.9c-.1 2.8-.6 5.6-1.5 8.3-.5 2-.9 4.2-1.6 6.1l1.9-1h-.1c-1.8-.6-2.6 2.3-.8 2.9h.1c.8.2 1.6-.2 1.9-1 .8-2.2 1.2-4.8 1.8-7.1.8-2.7 1.2-5.4 1.3-8.2 0-1.8-3-1.8-3 0z"/><path d="m305.5 967.5 5.7.1c1.9 0 1.9-3 0-3l-5.7-.1c-2 0-2 3 0 3z"/><path d="m318.7 952 4 .1c1.1-.1 2.3-.1 3.4.1 1.9.5 2.7-2.4.8-2.9-1.2-.2-2.4-.3-3.6-.2l-4.6-.1c-1.9 0-1.9 3 0 3z"/><path d="m318.3 958 6 .1c1.9 0 1.9-3 0-3l-6-.1c-1.9 0-1.9 3 0 3z"/><path d="m316.8 952.1c.1 2.7-.1 5.4-.5 8-.2 1.1-.5 2.2-.8 3.2 0 .2-.6 2.1-.4 1.5-.4.7-.1 1.7.6 2.1.2.1.5.2.7.2 2.5.1 5.8.7 8.2 0 .8-.2 1.2-1.1 1-1.9s-1-1.2-1.8-1c-2.1.6-5.2.1-7.4-.1l1.3 2.3c2-4.3 2.1-9.6 2.1-14.2 0-.8-.7-1.5-1.5-1.5s-1.5.6-1.5 1.4z"/><path d="m337.6 949.4c-2.9 0-5.3-.5-7.4 1.8-1.5 1.6-2.2 3.9-.9 5.8.8 1 1.8 1.9 2.9 2.6 1.2.9 3.3 1.4 4.2 2.5.6.7 1.9 0-.3 1.3-1 .5-2 .7-3.1.7-1.2.1-2.5 0-3.7-.4-1.8-.7-2.6 2.2-.8 2.9 2.3.7 4.7.8 7 .3 1.8-.4 4.9-2.1 5.1-4.2.2-2.4-3.3-3.3-4.8-4.2-1.3-.7-4.6-2.4-3.9-4.5s3.9-1.5 5.7-1.5c1.9-.1 1.9-3.1 0-3.1z"/><path d="m192.1 986.3 27.9.5c1.9 0 1.9-3 0-3l-27.9-.5c-1.9 0-1.9 3 0 3z"/><path d="m191.3 998.9 29 .5c1.9 0 1.9-3 0-3l-29-.5c-1.9 0-1.9 3 0 3z"/><path d="m75.3 1060.7c0-4.4 2.4-9 3.8-13.2 1.3-3.9 2.8-7.8 4.4-11.6s3.3-7.4 5.2-11c1.6-3.1 1.9-7.3 3.8-10.1l-2.7-.4c.6 4.2-.1 8.7.3 12.9s1.3 8.4 1.8 12.7c1.2 9.1 1.4 18.7 3.6 27.6.2.8 1.1 1.3 1.9 1 .3-.1.6-.3.8-.6 1.7-3.8 2.7-8.1 4.4-12 2.1-4.8 4.3-9.5 6.4-14.2 2-4.5 3.9-9.1 6.1-13.5 1.8-3.6 2.2-7 3.5-10.6h-2.9c.9 2.4-.7 8.2-.8 11.1-.1 4-.4 7.9-.5 11.9-.2 6.9-.6 14 0 20.8.2 1.9 3.2 1.9 3 0-.7-7.4-.3-15.2.1-22.7.2-4.3.3-8.6.6-12.8.2-2.8 1.6-6.4.5-9.1-.2-.8-1.1-1.2-1.9-1-.5.1-.9.5-1 1-.6 1.7-.7 3.3-1.2 5-.7 2.2-1.6 4.3-2.7 6.3-2.2 4.5-4.1 9.2-6.1 13.8-1.9 4.4-4.1 8.8-6 13.3-1.6 3.6-2.4 7.6-4 11.2l2.7.4c-2.2-9.1-2.4-19-3.7-28.3-.7-4.8-1.6-9.7-1.9-14.6-.2-3.4.4-6.9-.1-10.3-.2-1.4-2.1-1.3-2.7-.4-2.2 3.1-2.4 7.3-4.2 10.7-1.9 3.6-3.6 7.3-5.2 11.1-1.8 4.4-3.4 8.9-4.9 13.4-1.4 4.1-3.4 7.8-3.4 12.2 0 .8.7 1.5 1.5 1.5s1.5-.7 1.5-1.5z"/><path d="m145.8 1014.9c-.3 4.2-3.6 9.1-5.4 12.9-2 4.1-3.7 8.2-5.6 12.3-3.3 6.5-5.9 13.3-7.9 20.3l2.2-.9-.3-.2c-1.5-1.2-3 1.4-1.5 2.6l.3.2c.7.4 1.6.2 2.1-.6.1-.1.1-.2.1-.3 2.4-8.7 6.3-16.4 9.8-24.5 1.8-4.1 3.9-8.2 5.8-12.3 1.4-3.1 3.3-6.1 3.5-9.5.1-1.9-2.9-1.9-3.1 0z"/><path d="m146.6 1016c-.3 17.4 0 34.6 4.3 51.5.2.8 1.1 1.3 1.9 1 .2-.1.4-.2.6-.4l.3-.2c1.5-1.2-.6-3.3-2.1-2.1l-.3.2 2.5.7c-4.2-16.7-4.5-33.6-4.2-50.7 0-1.9-3-1.9-3 0z"/><path d="m132.2 1049.1 13.8.2c1.9 0 1.9-3 0-3l-13.8-.2c-1.9 0-1.9 3 0 3z"/><path d="m166.2 1019.2 17.1.3c1.9 0 1.9-3 0-3l-17.1-.3c-1.9 0-1.9 3 0 3z"/><path d="m175.2 1018.9c-.1 7.6-.1 15.2-.4 22.8-.2 3.9-.8 7.8-1.9 11.6-.2 1.1-.6 2.3-1 3.3-2.5 4.5-6.1 2.4-8.4-.9-1.1-1.6-3.7-.1-2.6 1.5 2.1 3 5.2 5.9 9.4 5.2 3.3-.6 4-3.3 4.8-6.1 3.6-12.2 2.9-24.8 3.1-37.4 0-1.9-3-1.9-3 0z"/><path d="m209.8 1016.9c-5.4-.4-6.5 1.4-9.4 5.9-3.2 5.3-5.4 11.2-6.3 17.3-1.1 6.5-1.1 21.8 8.2 22.6 9.9.9 14.3-14.3 16.2-21.4 2.1-7.8 3.4-22.5-7.6-24-1.9-.3-2.7 2.6-.8 2.9 9.8 1.3 6.8 15.6 5.1 21.9-1.3 4.9-6.5 20.7-14 16.7-7.1-3.8-4.7-17-3.1-23.2.9-3.5 2.2-6.8 4-9.9.8-1.6 1.8-3.1 3-4.4 1.6-1.7 2.3-1.5 4.6-1.4 2 .2 2-2.8.1-3z"/><path d="m232.3 1018.2c0 7.8-.6 15.6-1.6 23.4-1 6.9-1.4 14.1-3.9 20.7l2.9.4v-.2c.2-1.9-2.8-1.9-3 0v.2c-.2 1.8 2.4 1.9 2.9.4 2.6-7.2 3-15 4.1-22.5 1-7.4 1.4-14.9 1.5-22.3.1-2.1-2.9-2.1-2.9-.1z"/><path d="m236 1019c4.3 0 9.7-.6 12.2 3.7 1.8 3.2 2.5 7.8.8 11-3.1 5.8-9.3 3.5-13.9 6.5-.7.4-.9 1.4-.5 2.1.2.3.5.5.8.6 4.2 1.5 8.1 7.4 11.4 10.4 3.5 3.2 6.2 6.9 9.5 10.2 1.4 1.4 3.5-.7 2.1-2.1-4.1-4.1-7.8-8.4-12-12.4-3.1-3-6.1-7.4-10.3-9l.4 2.7c3.5-2.3 8.5-1.6 12.1-4.1 3.3-2.3 4.4-5 4.2-9-.1-3.7-1.1-8.2-3.9-10.9-3.5-3.3-8.5-2.8-13-2.9-.8 0-1.5.7-1.5 1.5s.7 1.6 1.6 1.7z"/><path d="m260.4 1021.5 16.7.3c1.9 0 1.9-3 0-3l-16.7-.3c-2 0-2 3 0 3z"/><path d="m269 1020.5c-.2 13-2.3 25.5-4.6 38.3-.4 1.9 2.5 2.7 2.9.8 2.4-13.1 4.5-25.8 4.7-39.1 0-1.9-3-1.9-3 0z"/><path d="m258.5 1064.1 15.3.3c1.9 0 1.9-3 0-3l-15.3-.3c-1.9 0-1.9 3 0 3z"/><path d="m285.8 1021.3c10.3.2 21.4 1.5 31.6.2 1.9-.2 1.9-3.2 0-3-10.3 1.3-21.3 0-31.6-.2-1.9 0-1.9 3 0 3z"/><path d="m305 1020.5c-.1 7.2-.1 14.4-.4 21.6-.2 3.2-.6 6.4-1.2 9.5-.4 3 0 7.6-1.2 10.3-.8 1.7 1.8 3.3 2.6 1.5 1.2-2.7 1-5.6 1.3-8.5s.9-6.1 1.2-9.2c.8-8.3.4-16.9.6-25.3.1-1.8-2.9-1.8-2.9.1z"/><path d="m328.5 1020.3c2.3 3.1 4.9 6 7.9 8.6 3.2 2.8 6 6 9.2 8.8 1.5 1.3 3.6-.9 2.1-2.1-2.9-2.5-5.4-5.5-8.3-8.1-3-2.6-5.8-5.6-8.3-8.8-1.1-1.5-3.7.1-2.6 1.6z"/><path d="m358.9 1020c-3.1 3.5-7 6.5-10.3 9.8-2.6 2.6-4.6 3.4-4.9 7.1-1.1 11.7-3.7 23.3-5 35-.2 1.9 2.8 1.9 3 0 1.2-11 3.6-21.8 4.8-32.7.2-1.5 0-2.9.9-4.2s2.8-2.6 3.9-3.6c3.2-3 6.8-5.8 9.8-9.1 1.2-1.6-.9-3.7-2.2-2.3z"/></g></svg>