<svg viewBox="0 0 1200 1200" xmlns="http://www.w3.org/2000/svg"><path d="m830.77 837.69-299.94 29.38c-18.33 1.8-40.48-5.25-49.22-15.66l-325-387c-8.74-10.41-.9-20.41 17.39-22.19l300-29.39c18.33-1.8 40.48 5.25 49.22 15.66l325 387c8.72 10.42.88 20.4-17.45 22.2z" fill="#fff"/><path d="m498.23 568.22c-4.66-.15-9-1.45-13.46-2.64s-8.77-1.71-13.18-2.58a151.81 151.81 0 0 0 -25.59-3c-16.19-.47-32.43.18-48.33 3.42-14.33 2.93-25.61 9.16-35.39 19.86a42.05 42.05 0 0 0 -8.87 16.85c-1.9 7.06-.3 13.11 1.88 19.76 5.49 16.68 18.17 28.05 33.26 36.21 1.7.92 3.22-1.67 1.51-2.59-13.16-7.11-25.32-16.93-30.86-31.33-2.61-6.79-4.49-13.46-3-20.78 1.32-6.33 5-12.41 9.14-17.2 9.72-11.3 23.53-16.54 38-18.64a241.49 241.49 0 0 1 43.52-2.53c9.33.32 18.3 2 27.48 3.44 8 1.28 15.72 4.44 23.83 4.71 1.93.06 1.93-2.94 0-3z" fill="#a8a8a8"/><path d="m566.8 618.19c22.17 29.93-1 58.14-51.66 63s-109.78-15.46-132-45.39 1-58.14 51.66-63 109.83 15.46 132 45.39z" fill="none" stroke="#a8a8a8" stroke-dasharray="3.51 2.85" stroke-miterlimit="10" stroke-width="3.84"/><g fill="#a8a8a8"><path d="m591 702.29 14.34 17.08c1.24 1.48 3.36-.65 2.12-2.12l-14.34-17.08c-1.24-1.48-3.36.65-2.12 2.12z"/><path d="m589.69 700-16.87 1.65c-5.24.52-11.32 1.86-16.54.69-1.88-.42-2.68 2.47-.8 2.89 5 1.11 10.48.12 15.47-.4 6.24-.65 12.49-1.22 18.74-1.84 1.9-.19 1.92-3.19 0-3z"/><path d="m539.28 686.31 15.94 19c1.24 1.48 3.36-.65 2.12-2.12l-15.94-19c-1.24-1.48-3.36.65-2.12 2.12z"/><path d="m539.53 687.85a110.4 110.4 0 0 0 19.47-3.49c5.75-1.55 12.44-2.71 17.15-6.59 4-3.33 7.8-7.91 11.24-11.85 1.71-2 2.89-4.18 4.47-6.24 1.25-1.63 2.84-3 3.66-4.84 2.14-4.84 1.07-10.13.38-15.2-.52-3.83-2-7.64-3-11.36a42.31 42.31 0 0 0 -2.84-8.22c-5.65-10.7-16.07-19.15-26.08-25.65-5.85-3.8-11.12-7.2-17.89-9-7.09-1.93-13.93-4.45-21-6.33a1.5 1.5 0 0 0 -.8 2.89c6.85 1.82 13.46 4.23 20.29 6.13s12.07 5.14 17.91 8.95a94.92 94.92 0 0 1 17.79 14.69c5.62 6.08 8.19 12.18 10.44 20 1.93 6.74 5.32 16.57 1.2 23.17-1.3 2.09-3.29 3.86-4.67 5.94a60.73 60.73 0 0 1 -7.2 8.42c-1.6 1.68-3 3.58-4.63 5.18-3.15 3-7.12 4.16-11.19 5.37a123.24 123.24 0 0 1 -24.7 5c-1.91.17-1.93 3.17 0 3z"/><path d="m524.78 580.84c2.1-3 4.69-5 7.08-7.67a76 76 0 0 0 5.48-7.65c1.5-2.18 2.43-4.38 3.73-6.68 1.64-2.9 4.92-4.22 7-6.71 1.25-1.46-.87-3.59-2.12-2.12-1.9 2.23-4.69 3.46-6.51 5.76a14.55 14.55 0 0 0 -1.67 3 44 44 0 0 1 -3.55 5.78c-1.82 2.78-3.42 5.53-5.85 7.89a44.15 44.15 0 0 0 -6.21 6.84c-1.1 1.59 1.5 3.09 2.59 1.51z"/><path d="m545.59 551.66c7 8.38 14.15 16.56 21.52 24.59 1.31 1.42 3.43-.7 2.12-2.12-7.38-8-14.49-16.22-21.52-24.59-1.24-1.48-3.36.65-2.12 2.12z"/><path d="m568.18 576.69 21.74-2.13c1.9-.19 1.92-3.19 0-3l-21.74 2.13c-1.9.19-1.92 3.19 0 3z"/><path d="m553 525.25 22.11 26.33c3.09 3.68 7 7.28 9.51 11.36a84.09 84.09 0 0 0 7.82 10.31c1.24 1.48 3.36-.65 2.12-2.12-1.52-1.81-3.17-3.55-4.59-5.43-1.19-1.58-1.9-3.44-3.07-5-2.88-3.92-6.53-7.47-9.67-11.21l-22.11-26.33c-1.24-1.48-3.36.65-2.12 2.12z"/><path d="m548.48 521.19c-27.77 2.72-55.56 4.93-83.33 7.65-1.9.19-1.92 3.19 0 3 27.77-2.72 55.56-4.93 83.33-7.65 1.9-.19 1.92-3.19 0-3z"/><path d="m463.29 531.48q3.43 4.09 6.87 8.18a24.55 24.55 0 0 1 2.85 3.73 12.78 12.78 0 0 0 1.83 2.88c1.33 1.41 3.45-.72 2.12-2.12-.89-.95-1.22-2.19-1.93-3.25a40.84 40.84 0 0 0 -2.75-3.35q-3.43-4.1-6.87-8.18c-1.24-1.48-3.36.65-2.12 2.12z"/><path d="m476.3 547.18 43.48-4.26c1.9-.19 1.92-3.19 0-3l-43.48 4.26c-1.9.19-1.92 3.19 0 3z"/><path d="m518.32 542.85c.85 2.18-3 4.41-4.3 6.08-1.61 2.13-3.66 3.92-5.22 6.11-1.8 2.53-3.25 5.4-5.22 7.84-.17.21-5.46 5.89-5 6.1-1.74-.81-3.26 1.77-1.51 2.59 2.31 1.08 3.69-.62 5.06-2.37 2.62-3.34 5.75-6.37 7.86-10.14 1.42-2.53 3.38-4.05 5.21-6.17 1.06-1.23 1.73-2.69 2.85-3.94 1.92-2.14 4.4-3.73 3.17-6.9-.69-1.78-3.59-1-2.89.8z"/><path d="m501.31 585c-7.31-3-15.67-4.58-23.42-6.12-8.47-1.69-16.82-1.9-25.41-2.1-7.93-.19-15.82 1.22-23.72 1.88-6.85.57-14.32 1.31-20.43 4.79a153 153 0 0 0 -19.42 13.52c-5.43 4.34-9 7.54-8.69 14.79.25 6.12 3.5 13.52 7.23 18.37 4.24 5.52 9.09 12.24 14.75 16.34 6.57 4.77 13.57 7.49 21 10.59s14.5 7.06 22.15 9.21c15.75 4.43 31.27 5.93 47.54 6.6 15.4.64 31.83 3.81 46.43-3.16 6.33-3 10.36-9.15 16.3-12.58a22.15 22.15 0 0 0 11-15.56c1.06-6.2 1.07-14.1-3-19.07a79 79 0 0 0 -18.79-17.07c-7.41-4.84-15.64-8.14-23.77-11.56-8.36-3.52-18.37-5-25.53-10.94-1.47-1.23-3.61.88-2.12 2.12 4.11 3.42 9.25 5.26 14.17 7.23 6.7 2.68 13.5 4.89 20.16 7.72 12.7 5.41 26.65 13.08 34.21 25.14 3.9 6.22 2.41 17.36-1.27 23.26-2.25 3.61-5.14 4.95-8.37 7.31-2.24 1.64-4.13 3.68-6.2 5.51-11.33 10-26.45 10.72-40.88 9.64-14.85-1.11-29.87-1.17-44.54-3.87-13.84-2.55-26.19-8.45-39.07-13.8-7-2.9-14.56-5.7-20.09-11.11a89.84 89.84 0 0 1 -13.42-16.23c-3.79-6.26-7.75-17.1-1.7-23 5.43-5.3 12.1-9.52 18.47-13.56a47.66 47.66 0 0 1 23.12-7.61c7.44-.59 15.14-2.27 22.59-2 9.24.29 18.22.39 27.33 2.27 7.47 1.53 15.51 3 22.57 5.95 1.78.74 2.56-2.16.8-2.89z"/><path d="m413.17 611.88 13.15 15.66c1.24 1.48 3.36-.65 2.12-2.12l-13.15-15.66c-1.24-1.48-3.36.65-2.12 2.12z"/><path d="m414.21 614.37c8.37-.8 16.78-1.35 25.12-2.43 8-1 15.89-2.78 23.86-3.93 5.84-.84 12-1.13 17.73-2.42 7.94-1.79 16.2-1.52 24.28-2.19 1.91-.16 1.93-3.16 0-3-13.84 1.14-27.52 2-41.19 4.46-16.54 2.94-33.08 4.9-49.81 6.51-1.9.18-1.92 3.18 0 3z"/><path d="m504.55 603.44 12 14.23c1.24 1.48 3.36-.65 2.12-2.12l-12-14.23c-1.24-1.48-3.36.65-2.12 2.12z"/><path d="m427.39 626.95c15-1.47 30-2.68 45-4.82 6.26-.9 12.45-1.61 18.74-2.36 6.46-.77 12.74-2.39 19.25-3 1.91-.18 1.92-3.18 0-3a145.14 145.14 0 0 0 -17.38 2.67c-3.91.86-8 .55-11.89 1.2-2.62.43-5.12 1-7.77 1.33-15.26 2.11-30.6 3.47-45.94 5-1.9.19-1.92 3.19 0 3z"/><path d="m433.49 636.08 12.35 14.71c1.24 1.48 3.36-.65 2.12-2.12l-12.35-14.67c-1.24-1.48-3.36.65-2.12 2.12z"/><path d="m446.9 651.23 47.37-4.64c13.41-1.32 26.57-4.24 40-5.46 1.91-.17 1.93-3.18 0-3-13.44 1.23-26.59 4.14-40 5.46l-47.37 4.64c-1.9.19-1.92 3.19 0 3z"/><path d="m434.55 636.52 86.15-8.44c1.9-.19 1.92-3.19 0-3l-86.15 8.44c-1.9.19-1.92 3.19 0 3z"/><path d="m523.27 626.77 12.35 14.71c1.24 1.48 3.36-.65 2.12-2.12l-12.35-14.71c-1.24-1.48-3.36.65-2.12 2.12z"/></g><path d="m446.24 402.52-270.04 26.48c-33.86 3.32-48.22 21.59-32.08 40.81l317.35 377.87c16.14 19.22 56.68 32.12 90.54 28.8l269.99-26.48c33.87-3.32 48.22-21.59 32.08-40.81l-317.3-377.88c-16.15-19.22-56.67-32.11-90.54-28.79zm381.6 409.26c9.21 11 1 21.43-18.33 23.32l-270 26.46c-19.32 1.89-42.52-5.49-51.73-16.46l-317.38-377.89c-9.21-11-1-21.43 18.33-23.32l29.92-2.89 8.11-.79a9.15 9.15 0 0 1 7.65 2.71h.07c4.31 5.13 16.2 9.18 25.87 8.23l37.22-3.65 67.88-6.65 46-4.51c9.67-.95 13.47-6.53 9.17-11.66 0 0 .06 0 0 0-1.42-1.7-1-3.37 2.28-3.68l8.11-.79 27.73-2.72c19.32-1.89 42.52 5.49 51.73 16.46z"/><path d="m827.71 588.29s-202 84.33-226.37 117.62c0 0 6.66 15.54 39.95 4.44 0 0 82.12-33.29 111-46.61 0 0-142 22.19 4.44 46.61 0 0 66.58 8.88 93.21-4.44s115.41-79.9 146.48-91 106.53-42.17 175.33-68.8l-117.62-77.68z" fill="#d68056"/></svg>