<svg viewBox="0 0 1200 1200" xmlns="http://www.w3.org/2000/svg" xmlns:xlink="http://www.w3.org/1999/xlink"><clipPath id="a"><path d="m439.16 731.42h-2.16v-13.93a.57.57 0 0 0 -.57-.57h-109.43a.57.57 0 0 0 -.57.57v13.93h-2.15a.57.57 0 0 0 -.57.57v25.14a.57.57 0 0 0 .57.57h.42c.68 7.64 5.62 61.89 9 77 2 9.18 2.55 43.43 2.68 62.54h-.29a.57.57 0 0 0 -.57.57v16.19a.57.57 0 0 0 .57.57h92.22a.57.57 0 0 0 .57-.57v-16.13a.57.57 0 0 0 -.57-.57h-1.2c.13-19.11.64-53.36 2.68-62.54 3.37-15.16 8.3-69.41 9-77h.42a.57.57 0 0 0 .57-.57v-25.19a.57.57 0 0 0 -.62-.58z"/></clipPath><path d="m324.61 756.8s5.44 61.64 9.06 78c2.74 12.32 2.72 69.8 2.72 75.23h45.32v-153.23z" fill="#eba84a"/><path d="m438.82 756.8s-5.44 61.64-9.06 78c-2.76 12.28-2.76 69.75-2.76 75.2h-45.28v-153.2z" fill="#eba84a"/><rect fill="#36373b" height="26.29" rx="1" width="116.02" x="323.7" y="731.42"/><rect fill="#36373b" height="26.29" rx="1" width="110.59" x="326.42" y="716.92"/><rect fill="#36373b" height="17.22" rx="1" width="93.36" x="335.49" y="897.3"/><path d="m349.37 776.4h65.93v98.36h-65.93z" fill="#fff"/><g fill="none" stroke="#979797" stroke-width=".87"><path d="m374.86 822.45 12.69.06"/><path d="m387.6 822.46v.12.05.02.02.04.05.06.01.02.04.03.03.01.03.01.02.02.05.03.03.01.02.02.05.02.03.02.05.01.05.05.02.05.05.03.01.03.05.05.08.03.03.06.04.04.02.01.05.02.01.02.03.01.03.01.07.01.07.04.01.05.04.01.03.01.02.01.05.04.02.01.06.03.01.03.02.01.08.02.01.05.01.02.02.04.01.01.05.02.01.01.04.02.05.01.02.02.01.01.01.01.01.01.01.01.02.01.01.01.01.01.01"/><path d="m375 822.47v3.15"/><path d="m375 825.61h12.53"/><path d="m374.87 817.05 12.73.13"/><path d="m387.65 817.15-.14 3.1"/><path d="m374.9 817.09v3.35"/><path d="m374.94 820.23 12.54.07"/><path d="m379.18 848.38h3.71"/><path d="m390.24 800.34h11.25c.58 0 .47.66.31.19"/><path d="m401.94 800.54v11.58"/><path d="m388.47 813.1a11.43 11.43 0 0 0 -7.16-3 13.73 13.73 0 0 0 -3.75.36 17.66 17.66 0 0 0 -3.47 2 12.13 12.13 0 0 0 -2.82 3.25c-1.55 2.91-1.81 7.7-.25 10.71a10.94 10.94 0 0 0 6.83 5.64c6.22 1.73 13.53-1.88 14.11-9.74a10.19 10.19 0 0 0 -.33-4.32 21 21 0 0 0 -1.64-3z"/><path d="m390.05 809.51c-2-.84-3.58-1.95-5.62-2.44-4.75-1.14-9.93-.47-14 3.74-5.67 5.86-5.39 19 3.33 23.33"/><path d="m373.59 834c3.71 1.74 1.88 1.19 5.45 1.84"/><path d="m383 835.85c5.32-1.18 8.26-3.19 11.08-7.77"/><path d="m394.09 828c1.76-3.67 1-1.51 1.63-6.66"/><path d="m392.71 812.19c1.92 3.07 3.52 5.52 3 9.4"/><path d="m392.76 812.11c3.84-4.26 2-2.57 5.38-5.32"/><path d="m398.38 806.65.13 5.46"/><path d="m398.5 812.1h3.25"/><path d="m390.22 800.41v3.61h5.68q-1.55 1.31-5.66 5.55"/><path d="m379.06 835.87.19 4.15"/><path d="m382.89 835.84v4.19"/><path d="m374 840.07h5.21"/><path d="m374 840v3.67"/><path d="m373.91 843.7h5.34"/><path d="m379.18 843.78.06 4.58"/><path d="m382.8 843.61.08 4.74"/><path d="m382.83 843.7 5.28.05"/><path d="m388.07 840v3.72"/><path d="m382.86 840.08h5.21"/></g><text fill="#979797" font-family="Helvetica-Bold, Helvetica" font-size="8.03" font-weight="700" transform="translate(360.67 794.37)">I SUPPORT</text><text fill="#979797" font-family="Helvetica-Bold, Helvetica" font-size="8.03" font-weight="700" transform="translate(360.67 858.44)">EQUALIT<tspan letter-spacing="-.02em" x="35.24" y="0">Y</tspan></text><path d="m471.85 735.79s14.68-1.84 17.44 18.35-7.34 76.17-44 98.19c0 0-1.84.92-1.84-2.75 0 0 34.6-50 28.45-79.84 0 0-.92-24.78-32.12-12.85v-21.1z" fill="#36373b"/><g clip-path="url(#a)"><path d="m367.73 716.92s-13.6 185.82 43.51 197.6h-93.36l-4.53-197.6z" fill="#36373b" opacity=".2"/></g><path d="m495.4 853.22s-36.53 0-42.61-8.56-8.12-49.23 4.06-64.21 30.44 6.42 30.44 6.42-3.07-15.81 1.51-28.24 4-8.1 4-8.1.6 32.06 18.86 42.76l18.23 10.71z" fill="#d68056"/><path d="m849.84 874.62c38.43 33.4 98.21 229 98.21 229l-333-4.77c25.62-219.47 46.8-224.24 46.8-224.24z" fill="#713267"/><path d="m741.95 481.88s-82.18 247.62-89.29 261.12c-15.22 28.89-18.26 134.84 0 134.84s211 8.56 211 8.56 172.49-122 46.67-434.48-168.38 29.96-168.38 29.96z" fill="#eba84a"/><path d="m688.17 241.1s-26.38 211.9-36.52 216.17 67 27.82 69 32.1 184.66-15 194.81-21.4 2-303.92-119.73-303.92c-105.53 0-107.56 77.05-107.56 77.05z"/><path d="m726.73 418.74s.59 13 1.53 29c1.55 26.27 4.07 60.85 6.58 60.85 4.06 0 91.32-19.26 91.32-19.26v-149.4z" fill="#d88b72"/><path d="m830.22 429.44-103.49 55.65s-2 44.95 42.61 34.24 79.14-49.23 79.14-49.23z" fill="#fcf3ea"/><path d="m824.05 363.87c-8.72-28.38-97.32 66-97.32 66s.57 10.86 1.5 24.33c.25 3.62.52 7.44.82 11.28 0 .04 107.26-61.72 95-101.61z" fill="#c16853"/><path d="m686.14 241.1s-9.8 119.7 0 145.54c4.06 10.7 2 19.26 38.56 40.67s73-10.13 85.23-30c19.18-31 28.41-77-10.15-147.68s-54.78-62.04-54.78-62.04-38.56 10.71-58.86 53.51z" fill="#d88b72"/><path d="m683.92 252.1c1.4-10.85 2.22-17.42 2.22-17.42s2-77 107.55-77c39.06 0 66.43 30.63 85.25 72.44 3 6.66 5.78 13.61 8.36 20.76l-122.12.76-21.58.13-15.85.1-16.33.1s-4.38-29.21-7-23.67c-4.06 8.56-7.91 23.76-7.91 23.76z"/><path d="m797.86 276s-25.62.32-32.69 5" fill="none" stroke="#270704" stroke-miterlimit="10"/><path d="m703.39 272.13s16.23 2.14 20.29 8.56" fill="none" stroke="#270704" stroke-miterlimit="10"/><ellipse cx="781.89" cy="309.34" fill="#fff" rx="18.57" ry="15.23"/><path d="m734.91 314.46c-.63 8.39-12 12.2-21.85 9.19s-16.77-14.82-14.56-22.9c1-3.74 3.9-6.11 7.43-7.83 4.09-2 11.44-.71 15.15 1.47 10.85 6.36 14.56 10.28 13.83 20.07z" fill="#fff"/><path d="m734.91 314.46c-.63 8.39-12 12.2-21.85 9.19-5.87-1.79-3.95-24.44-1.4-28.4.28-.43 1.42-2 1.7-2.33s-.23.23 0 0a1.71 1.71 0 0 1 1.81-.6 19.23 19.23 0 0 1 5.92 2.07c10.84 6.36 14.55 10.28 13.82 20.07z"/><path d="m776.65 294.91c-5.24 2-3.34 29 .81 29.66 14.2 2.14 22.79-6.48 23-14.89s-8-15.44-18.2-15.71a11.52 11.52 0 0 0 -5.61.94z"/><path d="m747 331s-6.63 13.64-4.06 17.12c1.25 1.69 8.12 0 8.12 0" fill="none" stroke="#000" stroke-miterlimit="10"/><path d="m727.74 385.57s1.39-4.47 32.64-6.42c46-2.87 3.76 20.3-9.18 24.61-7.74 2.58-23.46-18.19-23.46-18.19z" fill="#a44b36"/><path d="m727.74 385.57s29.62 11 53.59-1.83" fill="none" stroke="#000" stroke-miterlimit="10"/><path d="m826.51 385.57-1.48 96s82.3-9.33 90.42-13.61-88.94-82.39-88.94-82.39z"/><path d="m745 810.41s0 57.79-8.12 83.47-211-100.59-207-89.89l-34.5 49.23s192.62 142.78 292.23 147.68c41.12 2 60-81.86 58.85-85.61 0 0 12.18-53.51 12.18-59.93s-113.64-44.95-113.64-44.95z" fill="#d68056"/><path d="m862.69 527.9s-89.29-59.9-123.79 288.93c0 0 8.12 21.4 123.78 36.38.01.01 111.62-327.45.01-325.31z" fill="#cf5232"/></svg>