<svg viewBox="0 0 1200 1200" xmlns="http://www.w3.org/2000/svg" xmlns:xlink="http://www.w3.org/1999/xlink"><clipPath id="a"><path clip-rule="evenodd" d="m461.42 465.44c-5.32.55-6.67 4.49-3 8.8l108 127.65c3.65 4.31 10.91 7.36 16.23 6.81l115.49-11.93c5.32-.55 6.67-4.49 3-8.8l-108-127.65c-3.65-4.31-10.91-7.36-16.23-6.81zm.78.92 115.49-11.93c4.69-.48 11.1 2.21 14.32 6l107.99 127.66c3.22 3.8 2 7.28-2.67 7.76l-115.49 11.93c-4.69.48-11.1-2.21-14.32-6l-108-127.65c-3.2-3.81-2.01-7.28 2.68-7.77zm-48.58-16 180-18.59 152.27 180-180 18.59z"/></clipPath><clipPath id="b"><path clip-rule="evenodd" d="m461.81 465.9 115.49-11.9c5-.52 11.84 2.35 15.27 6.41l107.99 127.59c3.43 4.06 2.16 7.77-2.84 8.28l-115.49 11.96c-5 .52-11.84-2.35-15.27-6.41l-107.96-127.65c-3.46-4.05-2.19-7.76 2.81-8.28z"/></clipPath><clipPath id="c"><path d="m573.17 609.18 133.6-13.8-120.41-142.34-133.61 13.8z"/></clipPath><clipPath id="d"><path clip-rule="evenodd" d="m441.13 642.29c-5.32.55-6.67 4.49-3 8.8l108 127.65c3.65 4.31 10.91 7.36 16.23 6.81l115.49-11.93c5.32-.55 6.67-4.49 3-8.8l-108-127.65c-3.65-4.31-10.91-7.36-16.23-6.81zm.78.92 115.49-11.93c4.69-.48 11.1 2.21 14.32 6l108 127.65c3.22 3.8 2 7.28-2.67 7.76l-115.5 11.94c-4.69.48-11.1-2.21-14.32-6l-107.99-127.63c-3.24-3.84-2.02-7.31 2.67-7.8zm-48.58-16 180-18.59 152.27 180-180 18.59z"/></clipPath><clipPath id="e"><path clip-rule="evenodd" d="m441.52 642.74 115.48-11.92c5-.52 11.84 2.35 15.27 6.41l108 127.65c3.43 4.06 2.16 7.77-2.84 8.28l-115.49 11.93c-5 .52-11.84-2.35-15.27-6.41l-107.99-127.68c-3.44-4-2.16-7.74 2.84-8.26z"/></clipPath><clipPath id="f"><path d="m552.88 786.02 133.6-13.8-120.41-142.34-133.61 13.8z"/></clipPath><clipPath id="g"><path clip-rule="evenodd" d="m598.51 626c-5.32.55-6.67 4.49-3 8.8l108 127.65c3.65 4.31 10.91 7.36 16.23 6.81l115.49-11.93c5.32-.55 6.67-4.49 3-8.8l-108-127.65c-3.65-4.31-10.91-7.36-16.23-6.81zm.78.92 115.49-11.92c4.69-.48 11.1 2.21 14.32 6l108 127.65c3.22 3.8 2 7.28-2.67 7.76l-115.5 11.96c-4.69.48-11.1-2.21-14.32-6l-108-127.65c-3.21-3.81-2.01-7.28 2.68-7.72zm-48.59-15.92 180-18.59 152.3 179.99-180 18.6z"/></clipPath><clipPath id="h"><path clip-rule="evenodd" d="m598.9 626.49 115.49-11.93c5-.52 11.84 2.35 15.27 6.41l108 127.65c3.43 4.06 2.16 7.77-2.84 8.28l-115.5 11.93c-5 .52-11.84-2.35-15.27-6.41l-108-127.65c-3.43-4.05-2.15-7.77 2.85-8.28z"/></clipPath><clipPath id="i"><path d="m710.26 769.77 133.6-13.8-120.41-142.34-133.61 13.8z"/></clipPath><clipPath id="j"><path clip-rule="evenodd" d="m305.17 481.58c-5.32.55-6.67 4.49-3 8.8l107.97 127.62c3.65 4.31 10.91 7.36 16.23 6.81l115.49-11.93c5.32-.55 6.67-4.49 3-8.8l-108-127.65c-3.65-4.31-10.91-7.36-16.23-6.81zm.78.92 115.49-11.93c4.69-.48 11.1 2.21 14.32 6l108 127.65c3.22 3.8 2 7.28-2.67 7.76l-115.5 11.94c-4.69.48-11.1-2.21-14.32-6l-108-127.65c-3.2-3.81-2.01-7.27 2.73-7.77zm-48.58-16 180-18.59 152.27 180-180 18.59z"/></clipPath><clipPath id="k"><path clip-rule="evenodd" d="m305.56 482 115.49-11.93c5-.52 11.84 2.35 15.27 6.41l108 127.65c3.43 4.06 2.16 7.77-2.84 8.28l-115.48 11.97c-5 .52-11.84-2.35-15.27-6.41l-108-127.65c-3.44-4.06-2.17-7.77 2.83-8.32z"/></clipPath><clipPath id="l"><path d="m416.92 625.31 133.61-13.79-120.42-142.34-133.61 13.79z"/></clipPath><clipPath id="m"><path d="m572.85 464.94c-1.68-2-1-3.8 1.57-4a9.75 9.75 0 0 1 7.14 3.17l2 2.4c.11.13.09.27-.1.29l-8 .83a.7.7 0 0 1 -.54-.23l-2.12-2.51zm14.38 1.49-1.24.13a.7.7 0 0 1 -.54-.23l-2-2.38a14 14 0 0 0 -10.36-4.55c-3.62.26-4.61 2.86-2.18 5.73l2.12 2.51c.11.13.09.27-.1.29l-1.24.13c-.48 0-.6.4-.27.79l7.73 9.14a1.87 1.87 0 0 0 1.45.61l15.54-1.6c.48 0 .6-.4.27-.79l-7.76-9.21a1.76 1.76 0 0 0 -1.42-.57z"/></clipPath><clipPath id="n"><path d="m552.56 641.78c-1.68-2-1-3.8 1.57-4a9.75 9.75 0 0 1 7.14 3.17l2 2.4c.11.13.09.27-.1.29l-8 .83a.7.7 0 0 1 -.54-.23l-2.12-2.51zm14.38 1.49-1.24.13a.7.7 0 0 1 -.54-.23l-2-2.38a14 14 0 0 0 -10.36-4.55c-3.62.26-4.61 2.86-2.18 5.73l2.12 2.51c.11.13.09.27-.1.29l-1.24.13c-.48 0-.6.4-.27.79l7.73 9.14a1.87 1.87 0 0 0 1.45.61l15.54-1.6c.48 0 .6-.4.27-.79l-7.76-9.17a1.76 1.76 0 0 0 -1.42-.61z"/></clipPath><clipPath id="o"><path d="m709.94 625.53c-1.68-2-1-3.8 1.57-4a9.75 9.75 0 0 1 7.14 3.17l2 2.4c.11.13.09.27-.1.29l-8 .83a.7.7 0 0 1 -.55-.22l-2.12-2.51zm14.38 1.47-1.24.13a.7.7 0 0 1 -.54-.23l-2-2.38a14 14 0 0 0 -10.36-4.52c-3.62.26-4.61 2.86-2.18 5.73l2.12 2.51c.11.13.09.27-.1.29l-1.24.13c-.48 0-.6.4-.27.79l7.73 9.14a1.87 1.87 0 0 0 1.45.61l15.54-1.6c.48 0 .6-.4.27-.79l-7.76-9.17a1.76 1.76 0 0 0 -1.42-.64z"/></clipPath><clipPath id="p"><path d="m718.85 701.48-40.54 4.19"/></clipPath><clipPath id="q"><path d="m770.94 696.1-40.55 4.19"/></clipPath><clipPath id="r"><path clip-rule="evenodd" d="m577.73 541.8 22.64-2.34a12.41 12.41 0 0 1 9.55 4c2.15 2.54 1.35 4.85-1.78 5.18l-22.64 2.36a12.41 12.41 0 0 1 -9.55-4c-2.14-2.56-1.34-4.87 1.78-5.2z"/></clipPath><path d="m330.83 575s-82.6 42-53.75 79.73 57.71 95.45 130.92 122.08 481.6 0 481.6 0 113.19-51 119.84-99.87-244.1-122.06-244.1-122.06-86.55-77.68-82.12-106.53-38.22 15.75-5.82 76.65-346.57 50-346.57 50z" fill="#d68056"/><path d="m901.55 826.47-299.94 29.39c-18.33 1.8-40.48-5.25-49.22-15.66l-325-387c-8.74-10.41-.89-20.39 17.44-22.19l299.94-29.39c18.33-1.8 40.48 5.25 49.22 15.66l325 387c8.74 10.41.89 20.39-17.44 22.19z" fill="#fff"/><path d="m517 391.3-270 26.46c-33.86 3.32-48.22 21.59-32.08 40.81l317.33 377.89c16.14 19.22 56.68 32.12 90.54 28.8l270-26.46c33.91-3.31 48.21-21.59 32.12-40.8l-317.35-377.9c-16.14-19.23-56.66-32.1-90.56-28.8zm381.6 409.26c9.21 11 1 21.43-18.33 23.32l-270 26.46c-19.32 1.89-42.52-5.49-51.73-16.46l-317.36-377.88c-9.21-11-1-21.43 18.33-23.32l29.93-2.93 8.11-.79a9.15 9.15 0 0 1 7.65 2.71h.07c4.31 5.13 16.2 9.18 25.87 8.23l37.22-3.65 67.88-6.65 46-4.51c9.67-.95 13.47-6.53 9.17-11.66 0 0 .06 0 0 0-1.42-1.7-1-3.37 2.28-3.68l8.11-.79 27.73-2.72c19.32-1.89 42.52 5.49 51.73 16.46z"/><g clip-path="url(#a)"><g clip-path="url(#b)"><g clip-path="url(#c)"><path d="m461.81 465.9 115.49-11.9c5-.52 11.84 2.35 15.27 6.41l107.99 127.59c3.43 4.06 2.16 7.77-2.84 8.28l-115.49 11.96c-5 .52-11.84-2.35-15.27-6.41l-107.96-127.65c-3.46-4.05-2.19-7.76 2.81-8.28z" fill="#e6e6e6"/></g></g></g><g clip-path="url(#b)"><g clip-path="url(#c)"><path d="m461.81 465.9 115.49-11.9c5-.52 11.84 2.35 15.27 6.41l107.99 127.59c3.43 4.06 2.16 7.77-2.84 8.28l-115.49 11.96c-5 .52-11.84-2.35-15.27-6.41l-107.96-127.65c-3.46-4.05-2.19-7.76 2.81-8.28z" fill="none" stroke="#979797" stroke-miterlimit="10" stroke-width="2"/></g></g><g clip-path="url(#d)"><g clip-path="url(#e)"><g clip-path="url(#f)"><path d="m441.52 642.74 115.48-11.92c5-.52 11.84 2.35 15.27 6.41l108 127.65c3.43 4.06 2.16 7.77-2.84 8.28l-115.49 11.93c-5 .52-11.84-2.35-15.27-6.41l-107.99-127.68c-3.44-4-2.16-7.74 2.84-8.26z" fill="#e6e6e6"/></g></g></g><g clip-path="url(#e)"><g clip-path="url(#f)"><path d="m441.52 642.74 115.48-11.92c5-.52 11.84 2.35 15.27 6.41l108 127.65c3.43 4.06 2.16 7.77-2.84 8.28l-115.49 11.93c-5 .52-11.84-2.35-15.27-6.41l-107.99-127.68c-3.44-4-2.16-7.74 2.84-8.26z" fill="none" stroke="#979797" stroke-miterlimit="10" stroke-width="2"/></g></g><g clip-path="url(#g)"><g clip-path="url(#h)"><g clip-path="url(#i)"><path d="m598.9 626.49 115.49-11.93c5-.52 11.84 2.35 15.27 6.41l108 127.65c3.43 4.06 2.16 7.77-2.84 8.28l-115.5 11.93c-5 .52-11.84-2.35-15.27-6.41l-108-127.65c-3.43-4.05-2.15-7.77 2.85-8.28z" fill="#e6e6e6"/></g></g></g><g clip-path="url(#h)"><g clip-path="url(#i)"><path d="m598.9 626.49 115.49-11.93c5-.52 11.84 2.35 15.27 6.41l108 127.65c3.43 4.06 2.16 7.77-2.84 8.28l-115.5 11.93c-5 .52-11.84-2.35-15.27-6.41l-108-127.65c-3.43-4.05-2.15-7.77 2.85-8.28z" fill="none" stroke="#979797" stroke-miterlimit="10" stroke-width="2"/></g></g><g clip-path="url(#j)"><g clip-path="url(#k)"><g clip-path="url(#l)"><path d="m305.56 482 115.49-11.93c5-.52 11.84 2.35 15.27 6.41l108 127.65c3.43 4.06 2.16 7.77-2.84 8.28l-115.48 11.97c-5 .52-11.84-2.35-15.27-6.41l-108-127.65c-3.44-4.06-2.17-7.77 2.83-8.32z" fill="#fff"/></g></g></g><g clip-path="url(#k)"><g clip-path="url(#l)"><path d="m305.56 482 115.49-11.93c5-.52 11.84 2.35 15.27 6.41l108 127.65c3.43 4.06 2.16 7.77-2.84 8.28l-115.48 11.97c-5 .52-11.84-2.35-15.27-6.41l-108-127.65c-3.44-4.06-2.17-7.77 2.83-8.32z" fill="none" stroke="#979797" stroke-miterlimit="10" stroke-width="2"/></g></g><g clip-path="url(#m)"><path d="m577.96 483.87 28.58-2.96-23.3-27.55-28.59 2.95z" fill="#979797"/></g><g clip-path="url(#n)"><path d="m557.67 660.71 28.58-2.96-23.3-27.54-28.59 2.95z" fill="#979797"/></g><g clip-path="url(#o)"><path d="m715.05 644.46 28.58-2.96-23.3-27.55-28.59 2.95z" fill="#979797"/></g><g fill="none" stroke="#979797" stroke-miterlimit="10" stroke-width="2"><path d="m750.65 731.65c26.89-2.78 35.82-20.24 19.94-39s-50.54-31.73-77.43-29-35.82 20.24-19.94 39 50.54 31.77 77.43 29z" stroke-dasharray="2 2"/><path d="m703.36 697.59c3.75-.39 4.71-3.17 2.13-6.21s-7.7-5.2-11.45-4.81-4.71 3.17-2.13 6.21 7.7 5.22 11.45 4.81z" stroke-dasharray="2 2"/><path d="m737.33 694.08c3.75-.39 4.71-3.17 2.13-6.21s-7.7-5.2-11.45-4.81-4.71 3.17-2.13 6.21 7.7 5.2 11.45 4.81z" stroke-dasharray="2 2"/><path d="m728.12 705c2.5-.26 3.14-2.11 1.42-4.14a9.93 9.93 0 0 0 -7.64-3.21c-2.5.26-3.14 2.11-1.42 4.14a9.93 9.93 0 0 0 7.64 3.21z" stroke-dasharray="2 2"/><path d="m642.23 663.77q2.4-3.55 28.24 4.83a18.87 18.87 0 0 0 -7.26 6 13.93 13.93 0 0 0 -2.35 8.17q-21.03-15.45-18.63-19z" stroke-dasharray="2 2"/><path d="m736 654.08q-7.54-2.53-16.19 9.42a89.59 89.59 0 0 1 15.49 3.69 91.28 91.28 0 0 1 14.7 6.42q-6.44-17-14-19.53z" stroke-dasharray="2 2"/></g><g clip-path="url(#p)"><path d="m676.53 710.84 51.87-5.35-7.77-9.19-51.87 5.36z" fill="#d8d8d8"/></g><path d="m718.85 701.48-40.54 4.19" style="fill:none;stroke:#979797;stroke-miterlimit:10;stroke-width:2;stroke-linecap:square;stroke-dasharray:1 5"/><g clip-path="url(#q)"><path d="m728.61 705.46 51.87-5.35-7.77-9.19-51.87 5.36z" fill="#d8d8d8"/></g><path d="m770.94 696.1-40.55 4.19" style="fill:none;stroke:#979797;stroke-miterlimit:10;stroke-width:2;stroke-linecap:square;stroke-dasharray:1 5"/><path d="m720.9 703.76-31.92 10.29" style="fill:none;stroke:#979797;stroke-miterlimit:10;stroke-width:2;stroke-linecap:square;stroke-dasharray:1 5"/><path d="m732.22 702.59 42.03 1.66" style="fill:none;stroke:#979797;stroke-miterlimit:10;stroke-width:2;stroke-linecap:square;stroke-dasharray:1 5"/><path d="m724.72 705.37-21.18 17.16" style="fill:none;stroke:#979797;stroke-miterlimit:10;stroke-width:2;stroke-linecap:square;stroke-dasharray:1 5"/><path d="m732.65 704.55 41.44 9.7" style="fill:none;stroke:#979797;stroke-miterlimit:10;stroke-width:2;stroke-linecap:square;stroke-dasharray:1 5"/><path d="m610.24 566.41c23.45-2.42 29.42-19.8 13.33-38.82s-48.15-32.48-71.57-30.06-29.42 19.8-13.33 38.82 48.12 32.48 71.57 30.06z" fill="none" stroke="#979797" stroke-dasharray="2 2" stroke-miterlimit="10" stroke-width="2"/><g clip-path="url(#r)"><path d="m577.73 541.8 22.64-2.34a12.41 12.41 0 0 1 9.55 4c2.15 2.54 1.35 4.85-1.78 5.18l-22.64 2.36a12.41 12.41 0 0 1 -9.55-4c-2.14-2.56-1.34-4.87 1.78-5.2z" fill="none" stroke="#979797" stroke-dasharray="2 2" stroke-miterlimit="10" stroke-width="4"/></g><path d="m565.22 532.11c3.44-.36 4.31-2.9 2-5.69a13.65 13.65 0 0 0 -10.5-4.41c-3.44.36-4.31 2.9-2 5.69a13.65 13.65 0 0 0 10.5 4.41z" fill="none" stroke="#979797" stroke-dasharray="2 2" stroke-miterlimit="10" stroke-width="2"/><path d="m594.66 529.07c3.44-.36 4.31-2.9 2-5.69a13.65 13.65 0 0 0 -10.5-4.41c-3.44.36-4.31 2.9-2 5.69a13.65 13.65 0 0 0 10.5 4.41z" fill="none" stroke="#979797" stroke-dasharray="2 2" stroke-miterlimit="10" stroke-width="2"/><path d="m456.53 586.27c25-2.58 31.38-21.12 14.21-41.41s-51.35-34.64-76.36-32.06-31.38 21.13-14.21 41.42 51.35 34.64 76.36 32.05z" fill="none" stroke="#979797" stroke-dasharray="2 2" stroke-miterlimit="10" stroke-width="2"/><path d="m581.18 681.29c-17.92-7.52-35.16-5.74-38.5 4l-.51 1.51-2.77-1.17c-17.93-7.52-35.17-5.74-38.5 4s8.49 23.7 26.42 31.23l63.05 26.47.38.16a7.12 7.12 0 0 0 3.21.55 2.09 2.09 0 0 0 1.84-1.05l.08-.24 11.73-34.18c3.33-9.78-8.5-23.76-26.43-31.28z" fill="none" stroke="#979797" stroke-dasharray="2 2" stroke-miterlimit="10" stroke-width="2"/></svg>