<svg enable-background="new 0 0 1200 1200" viewBox="0 0 1200 1200" xmlns="http://www.w3.org/2000/svg" xmlns:xlink="http://www.w3.org/1999/xlink"><clipPath id="a"><path d="m806.7 230.5h-9.5v-62c0-1.4-1.1-2.5-2.5-2.5h-486.9c-1.4 0-2.5 1.1-2.5 2.5v62h-9.5c-1.4 0-2.5 1.1-2.5 2.5v111.9c0 1.4 1.1 2.5 2.5 2.5h1.9c3 34 25 275.3 40 342.7 9.1 40.8 11.3 193.2 11.9 278.2h-1.3c-1.4 0-2.5 1.1-2.5 2.5v71.5c0 1.4 1.1 2.5 2.5 2.5h410.2c1.4 0 2.5-1.1 2.5-2.5v-71.3c0-1.4-1.1-2.5-2.5-2.5h-5.5c.6-85 2.8-237.4 11.9-278.2 15-67.4 36.9-308.7 40-342.7h1.8c1.4 0 2.5-1.1 2.5-2.5v-112c.1-1.4-1-2.6-2.5-2.6z"/></clipPath><path d="m0 0h1198.2v1201.2h-1198.2z" fill="#fff"/><path d="m297.2 343.4s24.2 274.2 40.3 346.8c12.2 54.8 12.1 310.5 12.1 334.7h201.6v-681.5z" fill="#eba84a"/><path d="m805.2 343.4s-24.2 274.2-40.3 346.8c-12.2 54.8-12.1 310.5-12.1 334.7h-201.6v-681.5z" fill="#eba84a"/><path d="m294.1 230.5h514.1c.6 0 1 .4 1 1v114.9c0 .6-.4 1-1 1h-514.1c-.6 0-1-.4-1-1v-114.9c0-.5.5-1 1-1z" fill="#36373b"/><path d="m306.2 166h489.9c.6 0 1 .4 1 1v115c0 .6-.4 1-1 1h-489.9c-.6 0-1-.4-1-1v-115c0-.5.5-1 1-1z" fill="#36373b"/><path d="m346.6 968.4h413.3c.6 0 1 .4 1 1v74.6c0 .6-.4 1-1 1h-413.3c-.6 0-1-.4-1-1v-74.6c0-.5.4-1 1-1z" fill="#36373b"/><path d="m407.3 430.6h293.3v437.5h-293.3z" fill="#fff"/><g fill="none" stroke="#979797" stroke-width="2"><path d="m520.7 635.5 56.4.3"/><path d="m577.4 635.5v.5.2.1.1.2.3.2.1.2.1.2.2.1.1.2.1.2.1.1.2.1.1.1.3.2.2.1.3.2.1.2.2.2.4.1.2.2.2.1.2.2.1.1.1.1.2.3.4.1.1.2.2.2.1.1.2.1.1.1.3.1.2.1.4.1.2.1.1.2.1.2.1.1.2.1.2.1.1.1.1.1.1.1.1.1"/><path d="m521.1 635.5.1 14"/><path d="m521.2 649.5 55.7-.2"/><path d="m520.7 611.5 56.7.6"/><path d="m577.6 611.9-.6 13.8"/><path d="m520.9 611.6v14.9"/><path d="m521.1 625.6 55.8.3"/><path d="m539.9 750.8h16.5"/><path d="m589.1 537.1c16.7 0 33.4 0 50 .1 2.6 0 2.1 2.9 1.4.8"/><path d="m641.2 538 .1 51.5"/><path d="m581.3 593.9s-12.5-12.7-31.8-13.4c-3.4-.1-13.6.2-16.7 1.6-5.5 2.3-10.6 5.3-15.4 8.8-5 4-9.3 8.9-12.6 14.5-6.9 13-8 34.2-1.1 47.7 6.1 12.3 17.2 21.4 30.4 25.1 27.7 7.7 60.2-8.3 62.8-43.3.7-9.6.1-15-1.5-19.2-1.2-3.4-2.7-5.5-7.3-13.5z"/><path d="m588.3 577.9c-9-3.8-15.9-8.7-25-10.8-21.1-5.1-44.2-2.1-62.3 16.6-25.2 26.1-24 84.7 14.8 103.8"/><path d="m515 687c16.5 7.8 8.3 5.3 24.2 8.2"/><path d="m557 695.1c23.7-5.3 36.8-14.2 49.3-34.6"/><path d="m606.2 660.2c7.8-16.3 4.6-6.7 7.2-29.6"/><path d="m600.1 589.8c8.6 13.7 15.6 24.6 13.5 41.8"/><path d="m600.3 589.5c17.1-19 8.8-11.4 23.9-23.7"/><path d="m625.3 565.2.6 24.3"/><path d="m625.9 589.4 14.5-.1"/><path d="m589 537.4.2 16.1h25.2c-4.6 3.9-13 12.1-25.2 24.7"/><path d="m539.4 695.2.9 18.5"/><path d="m556.4 695 .1 18.6"/><path d="m516.8 713.8 23.2.2"/><path d="m516.8 713.7v16.3"/><path d="m516.5 730 23.8.1"/><path d="m539.9 730.3.2 20.4"/><path d="m556 729.6.3 21.1"/><path d="m556.1 730 23.5.2"/><path d="m579.5 713.7.1 16.6"/><path d="m556.3 713.9 23.2.1"/></g><text fill="#979797" font-family="'Helvetica-Bold'" font-size="35.72" transform="translate(457.61 510.52)">I SUPPORT</text><text fill="#979797" font-family="'Helvetica-Bold'" font-size="35.72" transform="translate(457.61 795.58)">EQUALIT</text><text fill="#979797" font-family="'Helvetica-Bold'" font-size="35.72" transform="translate(614.38 795.58)">Y</text><path d="m952.1 250s65.3-8.2 77.6 81.6c12.2 89.8-32.7 338.8-195.9 436.8 0 0-8.2 4.1-8.2-12.2 0 0 153.9-222.2 126.5-355.1 0 0-4.1-110.2-142.9-57.1v-94z" fill="#36373b"/><g clip-path="url(#a)"><path d="m489 166s-60.5 826.6 193.5 879h-415.3l-20.2-879z" fill="#36373b" opacity=".2"/></g></svg>