<?xml version="1.0" encoding="utf-8"?>
<!-- Generator: Adobe Illustrator 21.1.0, SVG Export Plug-In . SVG Version: 6.00 Build 0)  -->
<svg version="1.1" id="Layer_1" xmlns="http://www.w3.org/2000/svg" xmlns:xlink="http://www.w3.org/1999/xlink" x="0px" y="0px"
	 viewBox="0 0 1080 1080" style="enable-background:new 0 0 1080 1080;" xml:space="preserve">
<style type="text/css">
	.st0{fill:#D68056;}
	.st1{fill:#713267;}
	.st2{fill:#EBA84A;}
	.st3{fill:none;stroke:#270704;stroke-miterlimit:10;}
	.st4{fill:none;stroke:#000000;stroke-miterlimit:10;}
	.st5{fill:#CF5232;}
	.st6{fill:#414BBF;}
	.st7{fill:#D88B72;}
	.st8{fill:#935B50;}
	.st9{fill:#582F2B;}
	.st10{fill:#FFFFFF;}
	.st11{fill:#270704;}
	.st12{fill:#4B88EA;}
</style>
<path class="st0" d="M643.7,682.6c0,0-17.6-24.1-39.1-35.6c-5.2-2.8-10.6-0.8-14.4-0.3c-8.4,1.1-9.5,9.5-6.3,17.2
	c8,19.4,55.4,58.4,62.5,56.6c9.3-2.4,12.3-21.8,12.3-21.8L643.7,682.6z"/>
<path class="st1" d="M938.6,773.9c31.5,26,67.8,130.8,80.5,178c12.6,46.6,41.4,188.5,41.4,188.5H722.4l23.7-192.2
	c21-170.6,38.4-174.3,38.4-174.3L938.6,773.9z"/>
<path class="st2" d="M850.2,468.6c0,0-67.4,192.5-73.2,202.9c-12.5,22.5-15,104.8,0,104.8s173,6.6,173,6.6s39.1-41.2,50.7-140.6
	c5.9-50.2,1.3-101.5-33.3-183C864.3,216.6,850.2,468.6,850.2,468.6z"/>
<path d="M806.1,281.5c0,0-21.6,164.7-29.9,168s54.9,21.6,56.6,25s151.4-11.6,159.7-16.6s1.6-236.2-98.2-236.2
	C807.7,221.6,806.1,281.5,806.1,281.5L806.1,281.5z"/>
<path d="M802.6,290c1.2-8.4,1.8-13.5,1.8-13.5s1.7-59.9,88.2-59.9c32,0,54.5,23.8,69.9,56.3c2.5,5.2,4.7,10.6,6.8,16.1l-100.1,0.6
	l-17.7,0.1l-13,0.1l-13.4,0.1c0,0-3.6-22.7-5.8-18.4c-3.3,6.6-6.5,18.5-6.5,18.5L802.6,290z"/>
<g>
	<path class="st3" d="M896,308.6c0,0-21,0.2-26.8,3.9"/>
	<path class="st3" d="M818.5,305.6c0,0,13.3,1.7,16.6,6.6"/>
	<path class="st4" d="M854.3,351.4c0,0-5.4,10.6-3.3,13.3c1,1.3,6.7,0,6.7,0"/>
</g>
<path d="M919.5,393.8l-1.2,74.6c0,0,67.5-7.2,74.1-10.6S919.5,393.8,919.5,393.8z"/>
<path class="st0" d="M769.8,688.2c0,0,0,46.2-4.8,66.7S638.9,674.5,641.3,683l-20.6,39.3c0,0,115.1,114.1,174.6,118
	c24.6,1.6,35.9-65.4,35.2-68.4c0,0,7.3-42.8,7.3-47.9S769.8,688.2,769.8,688.2L769.8,688.2z"/>
<path class="st5" d="M841.2,474.5c0,0-56.5-46.6-78.4,224.5c0,0,5.1,16.6,78.4,28.3C841.2,727.3,911.9,472.8,841.2,474.5
	L841.2,474.5z"/>
<path class="st0" d="M624.5,725c0,0-29.9-20.9-32.5-31.2s-12.3-16.4-12.3-16.4c1.3-2.2,4.1-2.8,6.3-1.5c0.1,0,0.1,0.1,0.2,0.1
	c4.1,2.5,10,7.4,10,7.4s2.4-2.5,16.3,5.2s28.1,22.1,28.1,22.1l10.7,15.5L624.5,725z"/>
<path class="st6" d="M218.1,749.6c0,0-211.5-32.9-80.9,380.4c0,0,151.4,36.3,168,16.6S333.4,792.6,218.1,749.6L218.1,749.6z"/>
<path class="st6" d="M324.9,740c0,0-186.6-29-71.4,335.7c0,0,133.5,32,148.2,14.6S426.7,778.1,324.9,740z"/>
<path class="st7" d="M305.8,487.7c0,0,0,70.8,9.5,99.2c0,0,3.5,17.3,6.9,25s9.5,18.1,20.7,18.1s64.7-27.6,84.6-41.4
	s44.9-29.3,44.9-29.3l-24.2-22.4c0,0-80.2,32.8-84.6,38s3.5-51.8-6.9-69S305.7,487.7,305.8,487.7L305.8,487.7z"/>
<path class="st7" d="M448.1,536.9c2.6-7.8,6.9-12.9,12.9-16.4s9.5-11.2,9.5-14.7s5.2-2.6,5.2,2.6c-0.1,3.3-1,6.6-2.6,9.5
	c0,0,22.4-12.9,21.6-18.1s19,3.5,14.7,19s-16.4,38.8-37.1,40.6"/>
<path class="st6" d="M325.1,388.7c0,0-89.1-13.9-34,160.3c0,0,63.8,15.3,70.8,7S373.8,406.9,325.1,388.7L325.1,388.7z"/>
<path class="st7" d="M159.4,338v123c0,0,9.9,133.3,63.6,59c56-77.6,41.8-193.2,41.2-182H159.4z"/>
<path class="st8" d="M164.5,349.7v28c1.2,1.1-6,27.8,45.1,9.8c51.8-18.3,57-37.8,57-37.8H164.5z"/>
<path class="st7" d="M210.6,381c-19.3-3.7-8.8,0.2-31.1-9.8c-14.7-6.6-36.5-53.1-36.5-70.4l-0.5-49c0.1-37.6,30.5-68,68.1-68.1
	c37.6,0.1,68,30.5,68.1,68.1v61C278.6,350.4,248.2,380.9,210.6,381L210.6,381z"/>
<path class="st8" d="M171.7,278.1c0,0-12.4-7.8-20.9,0s-2,35.8,4,37.6s12,3.7,16,3.7S171.7,278.1,171.7,278.1z"/>
<path class="st9" d="M275.3,227.7c-5.8,1.2-4.2-7.2-22.4-7.2h-59.6c-18.3,0-20.5,15.6-20.5,27.7s1.9,52.2,1.9,52.2l-37.3-0.9v-79.1
	c0,0,18.3-73,73-73c0,0-12.2,18.3-6.1,24.3c0,0,12.2-12.2,36.5-12.2c0,0-6.1,12.2,0,18.3c0,0,35.1,12.2,36.5,42.6"/>
<path class="st7" d="M173.6,275.4c0,0-11.5-8-19.5,0s-1.9,36.5,3.7,38.4s11.2,3.7,14.9,3.7S173.6,275.4,173.6,275.4L173.6,275.4z"/>
<path class="st3" d="M197.9,249.4c0,0,19,0.2,24.3,3.8"/>
<path class="st3" d="M268.1,246.5c0,0-12.1,1.6-15.1,6.4"/>
<ellipse class="st10" cx="209.8" cy="274.3" rx="13.8" ry="11.4"/>
<path class="st10" d="M243.9,272.2c-2.1,5.9,4.4,12,12,12.9s15.9-5,16.9-11.2c0.4-2.9-0.8-5.4-2.7-7.6c-2.2-2.6-7.5-3.9-10.7-3.6
	C250.1,263.8,246.4,265.3,243.9,272.2L243.9,272.2z"/>
<path class="st4" d="M235.7,290.5c0,0,4.9,10.2,3,12.8c-0.9,1.3-6,0-6,0"/>
<path class="st9" d="M261.2,326.8c0,0-13.9-9.1-35.3-0.3c-24.5,10.1,0.8,18.7,6.8,18.4C250.3,344.2,261.2,326.8,261.2,326.8
	L261.2,326.8z"/>
<path class="st4" d="M260.6,326.3c0.1,3.1-27.5,17.7-45.6,8.7"/>
<path class="st11" d="M252.5,272.2c-0.4,2.1-0.2,5.9,5.4,11.9c1.5,1.6,2.6,0.9,4.8,0.2c5.2-1.8,9.5-6.1,10.2-10.4
	c0.4-2.9-0.8-5.4-2.7-7.6c-1.6-2-5.1-3.2-8-3.5c-0.9-0.2-1.8-0.2-2.7,0C255.7,264.6,253.1,268.1,252.5,272.2L252.5,272.2z"/>
<path class="st11" d="M203.7,272.5c-0.5,2.1-2.1,5.3,3.1,11.9c1.4,1.8,4,1.7,6.3,1.2c5.3-1.4,10-5.3,11-9.6c0.6-2.8-0.4-5.5-2.1-7.9
	c-1.9-2.5-4.5-4.4-7.5-5.4c-1.4-0.1-2.9-0.1-4.4,0C206.6,264,204.8,268.2,203.7,272.5L203.7,272.5z"/>
<path class="st12" d="M160.1,400c0,0-1.1,36.4,55.4,40.2s47.8-43.9,47.8-43.9l45.5-6.6c8.8-1.3,17.1,5.3,19.1,15.3
	c14.6,70.2,65,329.9,22.4,379.2c0,0-166.3,42.7-221.7,42.7S98.2,430.1,98.2,430.1L160.1,400z"/>
<path class="st7" d="M78.6,570.3c0,0,0,89.1,12,125c0,0,4.3,21.7,8.7,31.5s12,22.8,26.1,22.8s81.5-34.8,106.5-52.2s56.5-37,56.5-37
	L258,632.2c0,0-101.1,41.3-106.5,47.8s4.4-65.2-8.7-87S78.6,570.3,78.6,570.3L78.6,570.3z"/>
<path class="st7" d="M257.9,632.2c3.3-9.8,8.7-16.3,16.3-20.7s12-14.1,12-18.5s6.5-3.3,6.5,3.3c-0.1,4.2-1.2,8.3-3.3,12
	c0,0,28.3-16.3,27.2-22.8s23.9,4.3,18.5,23.9s-20.6,48.9-46.7,51.1"/>
<path class="st6" d="M111.9,424.3c0,0-101.9-15.9-38.9,183.2c0,0,72.9,17.5,80.9,8S167.4,445.1,111.9,424.3z"/>
<path class="st3" d="M305.8,936.6c0,0,17.5,75,8.7,151.6"/>
</svg>
