<svg xmlns="http://www.w3.org/2000/svg" viewBox="0 0 500 500"><defs><style>.cls-1{fill:#ecc83e;}</style></defs><title>Artboard 18</title><g id="friend"><polygon class="cls-1" points="68.4 119.63 68.4 372.58 344.62 372.58 350.43 119.63 68.4 119.63"/><path d="M294.5,63.8a60.07,60.07,0,0,0-49.57,26.26,55.59,55.59,0,0,0-87.35,68.06H67.28A13.36,13.36,0,0,0,54.42,171v77.16A13.38,13.38,0,0,0,67.28,261H80.14V436.78A13.38,13.38,0,0,0,93,449.64H401.68a13.37,13.37,0,0,0,12.86-12.86V261H427.4a13.38,13.38,0,0,0,12.86-12.87V171a13.36,13.36,0,0,0-12.86-12.86H343.67A59.93,59.93,0,0,0,294.5,63.8Zm0,25.72a34.3,34.3,0,0,1,0,68.6H260.2v-34.3A34.11,34.11,0,0,1,294.5,89.52Zm-90,8.58a29.81,29.81,0,0,1,30,30v30h-30a30,30,0,1,1,0-60ZM80.14,183.84H234.48v51.44H80.14Zm180.06,0H414.54v51.44H260.2ZM105.87,261H234.48v162.9H105.87Zm154.33,0H388.81v162.9H260.2Z"/></g></svg>