<svg xmlns="http://www.w3.org/2000/svg" viewBox="0 0 500 500"><defs><style>.cls-1{fill:#ecc83e;}</style></defs><title>Artboard 15</title><g id="friend"><circle class="cls-1" cx="223.4" cy="226.58" r="112.37"/><path d="M376.63,229.51c-5.19-57.9-52.86-104.58-110.91-108.58a120.28,120.28,0,0,0-17,0c-58.05,4-105.73,50.68-110.92,108.58a119.47,119.47,0,0,0,37.88,98.92A72,72,0,0,1,198.87,381v46.6a29.47,29.47,0,0,0,25.82,29.2c4.49,12.11,17,22.89,32.54,22.89s28-10.78,32.53-22.89a29.47,29.47,0,0,0,25.82-29.2V381a72.07,72.07,0,0,1,23.17-52.55A119.38,119.38,0,0,0,376.63,229.51ZM296,388.32v7.38H218.46v-7.38ZM234.61,265.5H225a9.6,9.6,0,1,1,9.6-9.6Zm14.69,14.69h15.85v93.44H249.3ZM218.46,417.78v-7.39H296v7.39Zm38.77,42.3c-5.63,0-10.46-3.73-13-7.72h25.89C267.69,456.35,262.85,460.08,257.23,460.08Zm28.94-22.68h-4.4a10.07,10.07,0,0,0-2.22.27H234.92a10.22,10.22,0,0,0-2.22-.27h-4.41a9.79,9.79,0,0,1-8.47-4.93h74.82A9.79,9.79,0,0,1,286.17,437.4Zm39.27-123.33a91.78,91.78,0,0,0-29.06,59.56H279.85V280.19h9.6a24.29,24.29,0,1,0-24.29-24.29v9.6H249.3v-9.6A24.29,24.29,0,1,0,225,280.19h9.59v93.44H218.08A91.79,91.79,0,0,0,189,314.07a100,100,0,0,1-31.69-82.82c4.33-48.41,44.21-87.43,92.75-90.79,2.4-.16,4.78-.21,7.14-.21s4.75.05,7.15.21c48.54,3.36,88.41,42.38,92.75,90.79A100,100,0,0,1,325.44,314.07ZM279.85,265.5v-9.6a9.6,9.6,0,1,1,9.6,9.6Z"/><path d="M257.23,88.52A7.8,7.8,0,0,0,265,80.75v-34a7.77,7.77,0,1,0-15.53,0v34A7.79,7.79,0,0,0,257.23,88.52Z"/><path d="M376.32,78.4a7.78,7.78,0,0,0-10.84,1.72l-20,27.52A7.76,7.76,0,1,0,358,116.77l20-27.53A7.78,7.78,0,0,0,376.32,78.4Z"/><path d="M412.15,200.6l32.36-10.52a7.76,7.76,0,1,0-4.8-14.76l-32.35,10.51a7.76,7.76,0,1,0,4.79,14.77Z"/><path d="M443.81,296l-32.36-10.51a7.76,7.76,0,1,0-4.79,14.77L439,310.73a7.77,7.77,0,1,0,4.8-14.77Z"/><path d="M356.22,368.46a7.76,7.76,0,0,0-12.57,9.12l20,27.53A7.76,7.76,0,1,0,376.21,396Z"/><path d="M165,365.41a7.78,7.78,0,0,0-10.84,1.72l-20,27.52a7.77,7.77,0,0,0,12.57,9.13l20-27.52A7.79,7.79,0,0,0,165,365.41Z"/><path d="M109.83,288.29a7.79,7.79,0,0,0-9.78-5L67.69,293.81a7.77,7.77,0,1,0,4.8,14.77l32.35-10.51a7.78,7.78,0,0,0,5-9.78Z"/><path d="M105.55,183.68,73.19,173.17a7.76,7.76,0,1,0-4.8,14.76l32.36,10.52a7.77,7.77,0,0,0,4.8-14.77Z"/><path d="M156,115.44a7.77,7.77,0,0,0,12.57-9.13l-20-27.52A7.76,7.76,0,1,0,136,87.92Z"/></g></svg>