<svg xmlns="http://www.w3.org/2000/svg" viewBox="0 0 500 500"><defs><style>.cls-1{fill:#ecc83e;}</style></defs><title>Artboard 19</title><g id="friend"><path class="cls-1" d="M437.4,110.52c0-27-20.06-48.81-44.8-48.81s-44.8,21.85-44.8,48.81a53.24,53.24,0,0,0,1.07,10.58v299h88.49v-300h-.84A52.58,52.58,0,0,0,437.4,110.52Z"/><path class="cls-1" d="M160.21,263.6c0-14.37-20.06-26-44.8-26s-44.8,11.65-44.8,26a15.82,15.82,0,0,0,1.07,5.64V428.65h88.49V268.73h-.84A15.71,15.71,0,0,0,160.21,263.6Z"/><path class="cls-1" d="M299.86,197.86c0-18-20.05-32.52-44.79-32.52s-44.8,14.56-44.8,32.52a24.18,24.18,0,0,0,1.06,7V404.13h88.49V204.28H299A24.19,24.19,0,0,0,299.86,197.86Z"/><path d="M124.88,316.16c-31.53,0-56.23-15.44-56.23-35.14s24.7-35.14,56.23-35.14S181.1,261.31,181.1,281,156.4,316.16,124.88,316.16Zm0-56.23C100,259.93,82.71,271,82.71,281S100,302.1,124.88,302.1,167,291,167,281,149.73,259.93,124.88,259.93Z"/><path d="M124.88,351.3c-31.53,0-56.23-15.44-56.23-35.14H82.71c0,10,17.32,21.08,42.17,21.08S167,326.13,167,316.16H181.1C181.1,335.86,156.4,351.3,124.88,351.3Z"/><path d="M265.44,281c-31.53,0-56.23-15.44-56.23-35.14h14.06c0,10,17.32,21.08,42.17,21.08s42.16-11.11,42.16-21.08h14.06C321.66,265.58,297,281,265.44,281Z"/><path d="M265.44,316.16c-31.53,0-56.23-15.44-56.23-35.14h14.06c0,10,17.32,21.08,42.17,21.08S307.6,291,307.6,281h14.06C321.66,300.72,297,316.16,265.44,316.16Z"/><path d="M265.44,351.3c-31.53,0-56.23-15.44-56.23-35.14h14.06c0,10,17.32,21.08,42.17,21.08s42.16-11.11,42.16-21.08h14.06C321.66,335.86,297,351.3,265.44,351.3Z"/><path d="M265.44,386.44c-31.53,0-56.23-15.44-56.23-35.14h14.06c0,10,17.32,21.08,42.17,21.08s42.16-11.11,42.16-21.08h14.06C321.66,371,297,386.44,265.44,386.44Z"/><path d="M265.44,421.58c-31.53,0-56.23-15.44-56.23-35.14h14.06c0,10,17.32,21.08,42.17,21.08s42.16-11.11,42.16-21.08h14.06C321.66,406.14,297,421.58,265.44,421.58Z"/><path d="M406,175.6c-31.52,0-56.22-15.44-56.22-35.14h14.06c0,10,17.31,21.08,42.16,21.08s42.17-11.11,42.17-21.08h14.06C462.22,160.16,437.52,175.6,406,175.6Z"/><path d="M406,210.74c-31.52,0-56.22-15.44-56.22-35.14h14.06c0,10,17.31,21.08,42.16,21.08s42.17-11.11,42.17-21.08h14.06C462.22,195.3,437.52,210.74,406,210.74Z"/><path d="M406,245.88c-31.52,0-56.22-15.44-56.22-35.14h14.06c0,10,17.31,21.08,42.16,21.08s42.17-11.11,42.17-21.08h14.06C462.22,230.44,437.52,245.88,406,245.88Z"/><path d="M406,281c-31.52,0-56.22-15.44-56.22-35.14h14.06c0,10,17.31,21.08,42.16,21.08s42.17-11.11,42.17-21.08h14.06C462.22,265.58,437.52,281,406,281Z"/><path d="M406,316.16c-31.52,0-56.22-15.44-56.22-35.14h14.06c0,10,17.31,21.08,42.16,21.08S448.16,291,448.16,281h14.06C462.22,300.72,437.52,316.16,406,316.16Z"/><path d="M406,351.3c-31.52,0-56.22-15.44-56.22-35.14h14.06c0,10,17.31,21.08,42.16,21.08s42.17-11.11,42.17-21.08h14.06C462.22,335.86,437.52,351.3,406,351.3Z"/><path d="M406,386.44c-31.52,0-56.22-15.44-56.22-35.14h14.06c0,10,17.31,21.08,42.16,21.08s42.17-11.11,42.17-21.08h14.06C462.22,371,437.52,386.44,406,386.44Z"/><path d="M406,421.58c-31.52,0-56.22-15.44-56.22-35.14h14.06c0,10,17.31,21.08,42.16,21.08s42.17-11.11,42.17-21.08h14.06C462.22,406.14,437.52,421.58,406,421.58Z"/><path d="M124.88,386.44c-31.53,0-56.23-15.44-56.23-35.14H82.71c0,10,17.32,21.08,42.17,21.08S167,361.27,167,351.3H181.1C181.1,371,156.4,386.44,124.88,386.44Z"/><path d="M124.88,421.58c-31.53,0-56.23-15.44-56.23-35.14H82.71c0,10,17.32,21.08,42.17,21.08S167,396.41,167,386.44H181.1C181.1,406.14,156.4,421.58,124.88,421.58Z"/><path d="M124.88,456.72c-31.53,0-56.23-15.44-56.23-35.14V281H82.71V421.58c0,10,17.32,21.08,42.17,21.08S167,431.55,167,421.58V281H181.1V421.58C181.1,441.28,156.4,456.72,124.88,456.72Z"/><path d="M265.44,456.72c-31.53,0-56.23-15.44-56.23-35.14V210.74h14.06V421.58c0,10,17.32,21.08,42.17,21.08s42.16-11.11,42.16-21.08V210.74h14.06V421.58C321.66,441.28,297,456.72,265.44,456.72Z"/><path d="M406,456.72c-31.52,0-56.22-15.44-56.22-35.14V105.32h14.06V421.58c0,10,17.31,21.08,42.16,21.08s42.17-11.11,42.17-21.08V105.32h14.06V421.58C462.22,441.28,437.52,456.72,406,456.72Z"/><path d="M265.44,245.88c-31.53,0-56.23-15.44-56.23-35.14s24.7-35.14,56.23-35.14,56.22,15.43,56.22,35.14S297,245.88,265.44,245.88Zm0-56.23c-24.85,0-42.17,11.11-42.17,21.09s17.32,21.08,42.17,21.08,42.16-11.11,42.16-21.08S290.29,189.65,265.44,189.65Z"/><path d="M406,140.46c-31.52,0-56.22-15.44-56.22-35.14S374.47,70.18,406,70.18s56.23,15.43,56.23,35.14S437.52,140.46,406,140.46Zm0-56.23c-24.85,0-42.16,11.12-42.16,21.09S381.14,126.4,406,126.4s42.17-11.11,42.17-21.08S430.85,84.23,406,84.23Z"/><path d="M272.46,210.74h-14v-49.2a7,7,0,0,1,2.06-5l14-14,9.94,9.93-12,12Z"/><path d="M287.78,154.51A63.39,63.39,0,0,1,279,154,7,7,0,0,1,273,148c-.17-1.18-4-28.95,11.63-44.6s43.41-11.82,44.59-11.63a7,7,0,0,1,5.94,6c.17,1.17,4,29-11.63,44.59C313.2,152.68,297.53,154.51,287.78,154.51Zm-1.25-14.07c7.26.14,19.77-.73,27.08-8s8.2-19.84,8-27.07c-7.3-.08-19.77.75-27.07,8S286.37,133.21,286.53,140.44Z"/><path d="M220.79,133.43c-11,0-28.55-2.05-40.13-13.62-17.52-17.52-13.21-48.79-13-50.11a7,7,0,0,1,6-6c1.31-.2,32.59-4.5,50.11,13s13.21,48.79,13,50.11a7,7,0,0,1-5.95,5.94A74.13,74.13,0,0,1,220.79,133.43ZM181.14,77.25c-.27,8.24.54,23.7,9.47,32.62s24.34,9.71,32.62,9.47c.28-8.24-.54-23.71-9.46-32.62S189.45,77,181.14,77.25Z"/><path d="M260.47,187.59l-35.14-35.14a7,7,0,0,1-2.06-5V119.37h14v25.21l33.08,33.08Z"/></g></svg>