<svg xmlns="http://www.w3.org/2000/svg" xmlns:xlink="http://www.w3.org/1999/xlink" viewBox="0 0 500 500"><defs><style>.cls-1{fill:#eba84a;}</style></defs><title>journey</title><g id="Layer_3" data-name="Layer 3"><polygon class="cls-1" points="131 145 124 158 124 258 142 277 177 277 188 237 186 227 153 206 151 184 163 166 174 159 184 152 179 140 161 140 137 137 131 145"/><polygon class="cls-1" points="95 211 95 226 98 241 108 250 119 250 121 233 121 211 121 197 106 197 95 211"/><polygon class="cls-1" points="129 117 141 129 163 134 176 126 182 105 175 85 160 76 137 76 126 93 129 117"/><image width="512" height="512" transform="translate(45 45) scale(0.8)" xlink:href="trekking.png"/></g></svg>