<svg id="图层_1" data-name="图层 1" xmlns="http://www.w3.org/2000/svg" xmlns:xlink="http://www.w3.org/1999/xlink" viewBox="0 0 1200 1200"><defs><style>.cls-1,.cls-15,.cls-16,.cls-5{fill:none;}.cls-2{fill:#eba84a;}.cls-3,.cls-9{fill:#36373b;}.cls-4{fill:#fff;}.cls-5{stroke:#979797;stroke-width:0.87px;}.cls-6{font-size:8.03px;fill:#979797;font-family:Helvetica-Bold, Helvetica;font-weight:700;}.cls-7{letter-spacing:-0.02em;}.cls-8{clip-path:url(#clip-path);}.cls-9{opacity:0.2;}.cls-10{fill:#d68056;}.cls-11{fill:#713267;}.cls-12{fill:#d88b72;}.cls-13{fill:#fcf3ea;}.cls-14{fill:#c16853;}.cls-15{stroke:#270704;}.cls-15,.cls-16{stroke-miterlimit:10;}.cls-16{stroke:#000;}.cls-17{fill:#a44b36;}.cls-18{fill:#cf5232;}</style><clipPath id="clip-path"><path class="cls-1" d="M439.16,731.42H437V717.49a.57.57,0,0,0-.57-.57H327a.57.57,0,0,0-.57.57v13.93h-2.15a.57.57,0,0,0-.57.57v25.14a.57.57,0,0,0,.57.57h.42c.68,7.64,5.62,61.89,9,77,2,9.18,2.55,43.43,2.68,62.54h-.29a.57.57,0,0,0-.57.57V914a.57.57,0,0,0,.57.57h92.22a.57.57,0,0,0,.57-.57V897.87a.57.57,0,0,0-.57-.57h-1.2c.13-19.11.64-53.36,2.68-62.54,3.37-15.16,8.3-69.41,9-77h.42a.57.57,0,0,0,.57-.57V732A.57.57,0,0,0,439.16,731.42Z"/></clipPath></defs><title>mug4</title><path class="cls-2" d="M324.61,756.8s5.44,61.64,9.06,78c2.74,12.32,2.72,69.8,2.72,75.23h45.32V756.8Z"/><path class="cls-2" d="M438.82,756.8s-5.44,61.64-9.06,78C427,847.08,427,904.55,427,910H381.72V756.8Z"/><rect class="cls-3" x="323.7" y="731.42" width="116.02" height="26.29" rx="1" ry="1"/><rect class="cls-3" x="326.42" y="716.92" width="110.59" height="26.29" rx="1" ry="1"/><rect class="cls-3" x="335.49" y="897.3" width="93.36" height="17.22" rx="1" ry="1"/><rect class="cls-4" x="349.37" y="776.4" width="65.93" height="98.36"/><g id="Page-v1.3"><g id="Home_finished" data-name="Home finished"><g id="gender"><path id="Path-59" class="cls-5" d="M374.86,822.45l12.69.06"/><polyline id="Path-60" class="cls-5" points="387.6 822.46 387.6 822.58 387.6 822.63 387.6 822.65 387.6 822.67 387.6 822.71 387.6 822.76 387.6 822.82 387.6 822.83 387.6 822.85 387.6 822.89 387.6 822.92 387.6 822.95 387.6 822.96 387.6 822.99 387.6 823 387.6 823.02 387.6 823.04 387.6 823.09 387.6 823.12 387.6 823.15 387.6 823.16 387.6 823.18 387.6 823.2 387.6 823.25 387.6 823.27 387.6 823.3 387.6 823.32 387.6 823.37 387.6 823.38 387.6 823.43 387.6 823.48 387.6 823.5 387.6 823.55 387.6 823.6 387.6 823.63 387.6 823.64 387.6 823.67 387.6 823.72 387.6 823.77 387.6 823.85 387.6 823.88 387.6 823.91 387.6 823.97 387.6 824.01 387.6 824.05 387.6 824.07 387.6 824.08 387.6 824.13 387.6 824.15 387.6 824.16 387.6 824.18 387.6 824.21 387.6 824.22 387.6 824.25 387.6 824.26 387.6 824.33 387.6 824.34 387.6 824.41 387.6 824.45 387.6 824.46 387.6 824.51 387.6 824.55 387.6 824.56 387.6 824.59 387.6 824.6 387.6 824.62 387.6 824.63 387.6 824.68 387.6 824.72 387.6 824.74 387.6 824.75 387.6 824.81 387.6 824.84 387.6 824.85 387.6 824.88 387.6 824.9 387.6 824.91 387.6 824.99 387.6 825.01 387.6 825.02 387.6 825.07 387.6 825.08 387.6 825.1 387.6 825.12 387.6 825.16 387.6 825.17 387.6 825.18 387.6 825.23 387.6 825.25 387.6 825.26 387.6 825.27 387.6 825.31 387.6 825.33 387.6 825.38 387.6 825.39 387.6 825.41 387.6 825.43 387.6 825.44 387.6 825.45 387.6 825.46 387.6 825.47 387.6 825.48 387.6 825.49 387.6 825.5 387.6 825.51 387.6 825.53 387.6 825.53 387.6 825.54 387.6 825.55 387.6 825.56 387.6 825.57 387.6 825.58 387.6 825.59"/><path id="Path-61" class="cls-5" d="M375,822.47l0,3.15"/><path id="Path-62" class="cls-5" d="M375,825.61l12.53,0"/><path id="Path-55" class="cls-5" d="M374.87,817.05l12.73.13"/><path id="Path-56" class="cls-5" d="M387.65,817.15l-.14,3.1"/><path id="Path-57" class="cls-5" d="M374.9,817.09v3.35"/><path id="Path-58" class="cls-5" d="M374.94,820.23l12.54.07"/><path id="Path-54" class="cls-5" d="M379.18,848.38h3.71"/><path id="Path-42" class="cls-5" d="M390.24,800.34c3.75,0,7.5,0,11.25,0,.58,0,.47.66.31.19"/><path id="Path-43" class="cls-5" d="M401.94,800.54l0,11.58"/><path id="Path-32" class="cls-5" d="M388.47,813.1a11.43,11.43,0,0,0-7.16-3,13.73,13.73,0,0,0-3.75.36,17.66,17.66,0,0,0-3.47,2,12.13,12.13,0,0,0-2.82,3.25c-1.55,2.91-1.81,7.7-.25,10.71a10.94,10.94,0,0,0,6.83,5.64c6.22,1.73,13.53-1.88,14.11-9.74a10.19,10.19,0,0,0-.33-4.32,21,21,0,0,0-1.64-3Z"/><path id="Path-33" class="cls-5" d="M390.05,809.51c-2-.84-3.58-1.95-5.62-2.44-4.75-1.14-9.93-.47-14,3.74-5.67,5.86-5.39,19,3.33,23.33"/><path id="Path-34" class="cls-5" d="M373.59,834c3.71,1.74,1.88,1.19,5.45,1.84"/><path id="Path-35" class="cls-5" d="M383,835.85c5.32-1.18,8.26-3.19,11.08-7.77"/><path id="Path-36" class="cls-5" d="M394.09,828c1.76-3.67,1-1.51,1.63-6.66"/><path id="Path-37" class="cls-5" d="M392.71,812.19c1.92,3.07,3.52,5.52,3,9.4"/><path id="Path-38" class="cls-5" d="M392.76,812.11c3.84-4.26,2-2.57,5.38-5.32"/><path id="Path-39" class="cls-5" d="M398.38,806.65l.13,5.46"/><path id="Path-40" class="cls-5" d="M398.5,812.1l3.25,0"/><path id="Path-41" class="cls-5" d="M390.22,800.41l0,3.61h5.68q-1.55,1.31-5.66,5.55"/><path id="Path-44" class="cls-5" d="M379.06,835.87l.19,4.15"/><path id="Path-45" class="cls-5" d="M382.89,835.84l0,4.19"/><path id="Path-46" class="cls-5" d="M374,840.07l5.21,0"/><path id="Path-47" class="cls-5" d="M374,840v3.67"/><path id="Path-48" class="cls-5" d="M373.91,843.7l5.34,0"/><path id="Path-49" class="cls-5" d="M379.18,843.78l.06,4.58"/><path id="Path-50" class="cls-5" d="M382.8,843.61l.08,4.74"/><path id="Path-51" class="cls-5" d="M382.83,843.7l5.28.05"/><path id="Path-52" class="cls-5" d="M388.07,840l0,3.72"/><path id="Path-53" class="cls-5" d="M382.86,840.08l5.21,0"/></g></g></g><text class="cls-6" transform="translate(360.67 794.37)">I SUPPORT</text><text class="cls-6" transform="translate(360.67 858.44)">EQUALIT<tspan class="cls-7" x="35.24" y="0">Y</tspan></text><path class="cls-3" d="M471.85,735.79s14.68-1.84,17.44,18.35-7.34,76.17-44,98.19c0,0-1.84.92-1.84-2.75,0,0,34.6-50,28.45-79.84,0,0-.92-24.78-32.12-12.85V735.79Z"/><g class="cls-8"><path class="cls-9" d="M367.73,716.92s-13.6,185.82,43.51,197.6H317.88l-4.53-197.6Z"/></g><path class="cls-10" d="M495.4,853.22s-36.53,0-42.61-8.56-8.12-49.23,4.06-64.21,30.44,6.42,30.44,6.42-3.07-15.81,1.51-28.24,4-8.1,4-8.1.6,32.06,18.86,42.76L529.89,804Z"/><path class="cls-11" d="M849.84,874.62c38.43,33.4,98.21,229,98.21,229l-333-4.77c25.62-219.47,46.8-224.24,46.8-224.24Z"/><path class="cls-2" d="M741.95,481.88S659.77,729.5,652.66,743c-15.22,28.89-18.26,134.84,0,134.84s211,8.56,211,8.56,172.49-122,46.67-434.48S741.95,481.88,741.95,481.88Z"/><path d="M688.17,241.1S661.79,453,651.65,457.27s67,27.82,69,32.1,184.66-15,194.81-21.4,2-303.92-119.73-303.92C690.2,164.05,688.17,241.1,688.17,241.1Z"/><path class="cls-12" d="M726.73,418.74s.59,13,1.53,29c1.55,26.27,4.07,60.85,6.58,60.85,4.06,0,91.32-19.26,91.32-19.26V339.93Z"/><path class="cls-13" d="M830.22,429.44,726.73,485.09s-2,44.95,42.61,34.24,79.14-49.23,79.14-49.23Z"/><path class="cls-14" d="M824.05,363.87c-8.72-28.38-97.32,66-97.32,66s.57,10.86,1.5,24.33c.25,3.62.52,7.44.82,11.28C729.05,465.52,836.31,403.76,824.05,363.87Z"/><path class="cls-12" d="M686.14,241.1s-9.8,119.7,0,145.54c4.06,10.7,2,19.26,38.56,40.67s73-10.13,85.23-30c19.18-31,28.41-77-10.15-147.68S745,187.59,745,187.59,706.44,198.3,686.14,241.1Z"/><path d="M683.92,252.1c1.4-10.85,2.22-17.42,2.22-17.42s2-77,107.55-77c39.06,0,66.43,30.63,85.25,72.44,3,6.66,5.78,13.61,8.36,20.76l-122.12.76-21.58.13-15.85.1-16.33.1s-4.38-29.21-7-23.67c-4.06,8.56-7.91,23.76-7.91,23.76Z"/><path class="cls-15" d="M797.86,276s-25.62.32-32.69,5"/><path class="cls-15" d="M703.39,272.13s16.23,2.14,20.29,8.56"/><ellipse class="cls-4" cx="781.89" cy="309.34" rx="18.57" ry="15.23"/><path class="cls-4" d="M734.91,314.46c-.63,8.39-12,12.2-21.85,9.19s-16.77-14.82-14.56-22.9c1-3.74,3.9-6.11,7.43-7.83,4.09-2,11.44-.71,15.15,1.47C731.93,300.75,735.64,304.67,734.91,314.46Z"/><path d="M734.91,314.46c-.63,8.39-12,12.2-21.85,9.19-5.87-1.79-3.95-24.44-1.4-28.4.28-.43,1.42-2,1.7-2.33s-.23.23,0,0a1.71,1.71,0,0,1,1.81-.6,19.23,19.23,0,0,1,5.92,2.07C731.93,300.75,735.64,304.67,734.91,314.46Z"/><path d="M776.65,294.91c-5.24,2-3.34,29,.81,29.66,14.2,2.14,22.79-6.48,23-14.89s-8-15.44-18.2-15.71A11.52,11.52,0,0,0,776.65,294.91Z"/><path class="cls-16" d="M747,331s-6.63,13.64-4.06,17.12c1.25,1.69,8.12,0,8.12,0"/><path class="cls-17" d="M727.74,385.57s1.39-4.47,32.64-6.42c46-2.87,3.76,20.3-9.18,24.61C743.46,406.34,727.74,385.57,727.74,385.57Z"/><path class="cls-16" d="M727.74,385.57s29.62,11,53.59-1.83"/><path d="M826.51,385.57l-1.48,96s82.3-9.33,90.42-13.61S826.51,385.57,826.51,385.57Z"/><path class="cls-10" d="M745,810.41s0,57.79-8.12,83.47-211-100.59-207-89.89l-34.5,49.23S688,996,787.61,1000.9c41.12,2,60-81.86,58.85-85.61,0,0,12.18-53.51,12.18-59.93S745,810.41,745,810.41Z"/><path class="cls-18" d="M862.69,527.9S773.4,468,738.9,816.83c0,0,8.12,21.4,123.78,36.38C862.69,853.22,974.3,525.76,862.69,527.9Z"/></svg>