<svg id="图层_1" data-name="图层 1" xmlns="http://www.w3.org/2000/svg" viewBox="0 0 1200 1200"><defs><style>.cls-1{fill:#d68056;}.cls-2,.cls-6,.cls-7{fill:#fff;}.cls-3{fill:#959595;}.cls-3,.cls-4,.cls-5,.cls-6,.cls-7{stroke:#000;stroke-miterlimit:10;}.cls-4{fill:#e1cdcc;}.cls-5,.cls-6{stroke-width:3.84px;}.cls-7{stroke-width:1px;}.cls-8{fill:#ce4234;}</style></defs><title>meet3</title><path class="cls-1" d="M320.11,580.83s-83,42.19-54,80.09,58,95.87,131.54,122.63,483.81,0,483.81,0,113.71-51.28,120.4-100.33S756.62,560.59,756.62,560.59s-87-78-82.49-107-38.45,15.82-5.85,77S320.11,580.83,320.11,580.83Z"/><path class="cls-2" d="M893.46,833.43,592.14,863c-18.41,1.8-40.66-5.27-49.44-15.73l-326.5-388.8c-8.78-10.45-.9-20.48,17.52-22.29L535,406.62c18.41-1.8,40.66,5.27,49.44,15.73L911,811.14C919.76,821.6,911.87,831.63,893.46,833.43Z"/><path d="M507.17,396.26,235.88,422.84c-34,3.33-48.44,21.69-32.23,41l318.8,379.63c16.22,19.31,56.94,32.26,91,28.93L884.7,845.82c34-3.33,48.44-21.69,32.23-41L598.12,425.19C581.9,405.87,541.19,392.92,507.17,396.26ZM890.52,807.4c9.25,11,1,21.53-18.41,23.43L600.83,857.41c-19.41,1.9-42.72-5.51-52-16.53L230,461.25c-9.25-11-1-21.53,18.41-23.43l30.06-2.95,8.15-.8a9.2,9.2,0,0,1,7.69,2.72h.07c4.32,5.15,16.27,9.22,26,8.27l37.39-3.66L426,434.73l46.19-4.53c9.71-1,13.53-6.56,9.21-11.71,0,0,.06,0,0,0-1.43-1.7-1-3.38,2.29-3.7l8.15-.8,27.86-2.73c19.41-1.9,42.72,5.51,52,16.53Z"/><path class="cls-3" d="M534,561.43s-28-50.6,26.26-43.14S665.49,623.85,663.88,628.7s7,45.64-56.74,6.91C607.15,635.61,533.64,561.26,534,561.43Z"/><path class="cls-3" d="M486.16,561.91s-102.6-48.83-88.55,4.4S484.42,675,514.08,684s35.36-27.63,35.36-27.63S500.53,568.1,486.16,561.91Z"/><path class="cls-3" d="M493.14,569.51s-41.18-31-19.78,9.4,48.72,65.94,54.31,70.42,5,6.56,9.13,0-.1-6.57-.1-6.57l-4.15-3.45s.42,13.49-12.38-2S484.32,596.86,473.65,563a18.87,18.87,0,0,1,11.52,4.81"/><path class="cls-3" d="M547.26,572.47c-11.61-30.06,15.27,2.38,15.27,2.38,10.64,9.31,39.12,50.05,38.14,49.71s-7.49-4.48-7.49-4.48l1.72,3.8,10.28,7.58c10.28,7.58,7.51,2.75,4.51-2.43s-13.43-21.76-33.38-45.92-36.49-37.26-40-37.94,4.08,21.44,4.08,21.44"/><path class="cls-3" d="M564.68,590.41s-65.54-10.54-64.26.18S538.8,655.86,558,663.07s57.08-5.35,55.25-14S585.76,597.61,564.68,590.41Z"/><path class="cls-3" d="M516.68,600.92s26.15-8.38,48-4.63c0,0-22.35-36.61-41.73-38.28s-31.83-4.41-31,9.77S516.68,600.92,516.68,600.92Z"/><path class="cls-3" d="M518.33,585.77s13.73,13,17.11,18.21l5.7,0s-13-15.88-17.26-18.29Z"/><path class="cls-3" d="M534.2,583.82s13.73,13,17.11,18.21l5.7,0s-13-15.88-17.26-18.29Z"/><path class="cls-3" d="M549.46,627.81s11.23-5.57,22.49-7c0,0,16.2,17.25,19.34,23.82s-6.38,8.32-6.38,8.32S569.63,661.66,549.46,627.81Z"/><path class="cls-4" d="M481.68,578.63c1.41,13.89,53.82,70.8,53.82,70.8a61.4,61.4,0,0,1-4.65,8c-3.31,5-3.14,22.83-51.1-6.31S417.81,579,417.81,579s-3.26-52.86,63.87-.36Z"/><path class="cls-4" d="M548.85,554.46c17.65,12.07,58.26,70.1,58.26,70.1s4.9,2.29,13.82,5.91,32.73,18.84,26.31-14.74S592.78,543,592.78,543s-68.62-45.56-43.93,11.42Z"/><path class="cls-5" d="M527.3,586.17c3.27,3.76,4,7.21,1.56,7.71s-7-2.14-10.3-5.9-4-7.21-1.56-7.71S524,582.42,527.3,586.17Z"/><path class="cls-6" d="M520.4,584c.69.61.84,1.32.33,1.59a2.25,2.25,0,0,1-2.16-.63c-.69-.61-.84-1.32-.33-1.59A2.25,2.25,0,0,1,520.4,584Z"/><path class="cls-2" d="M519.64,586.63a1.05,1.05,0,0,1-.72-.64c-.05-.25.18-.37.53-.27a1.05,1.05,0,0,1,.72.64C520.22,586.61,520,586.73,519.64,586.63Z"/><path class="cls-2" d="M522.69,586.62A1.05,1.05,0,0,1,522,586c-.05-.25.18-.37.53-.27a1.05,1.05,0,0,1,.72.64C523.26,586.6,523,586.72,522.69,586.62Z"/><path class="cls-7" d="M546.93,647.88s17.86,28,9.51,35.61-7.51,6.59-9.94,6.95S574,696.93,573,677.91s-7.91-27.31-7.91-27.31S549.42,650,546.93,647.88Z"/><path class="cls-7" d="M604.52,632.74s32,23.46,45.62,25.31,11.84,1.5,13.22.88-1.11,13.47-27,1.36-34.76-19.62-34.76-19.62S606.46,634.88,604.52,632.74Z"/><path class="cls-3" d="M570,616.51c-5.15-6.32-22.76-6.85-22.27,7.33,0,0,0,8.23,29.17,36.9s44.72,46.61,78.86,56.9,69.67-10.57,69.67-10.57-17.11-18.63-24.85-20C680.43,693.65,662.68,730.41,570,616.51Z"/><path class="cls-5" d="M544.72,584.39c3.12,3.58,3.78,6.86,1.48,7.34s-6.68-2-9.8-5.61-3.78-6.86-1.48-7.34S541.6,580.82,544.72,584.39Z"/><path class="cls-6" d="M538.62,581.77c.69.61.84,1.32.33,1.59a2.25,2.25,0,0,1-2.16-.63c-.69-.61-.84-1.32-.33-1.59A2.25,2.25,0,0,1,538.62,581.77Z"/><path class="cls-2" d="M538.54,585.13a1.16,1.16,0,0,1-.86-.49c-.18-.27-.08-.49.22-.49a1.16,1.16,0,0,1,.86.49C538.94,584.9,538.84,585.13,538.54,585.13Z"/><path class="cls-2" d="M541.58,585.12a1.16,1.16,0,0,1-.86-.49c-.18-.27-.08-.49.22-.49a1.16,1.16,0,0,1,.86.49C542,584.9,541.88,585.12,541.58,585.12Z"/><path class="cls-2" d="M540.84,583.39a1.16,1.16,0,0,1-.86-.49c-.18-.27-.08-.49.22-.49a1.16,1.16,0,0,1,.86.49C541.24,583.17,541.14,583.39,540.84,583.39Z"/><path class="cls-8" d="M744,747.61c-4.95-1.58-9.49-2.09-12.88-1.39-21.83,4.56,20.66,35.83,49.29,50.46l31,15.84,3.41-15.67S827.07,749.1,784,745.71c-3.28-.26-5.91.29-7.65,1.51l-10.51,7.38Z"/></svg>